<?xml version="1.0" encoding="UTF-8"?>
<svg width="156px" height="150px" viewBox="0 0 156 150" version="1.1" xmlns="http://www.w3.org/2000/svg" xmlns:xlink="http://www.w3.org/1999/xlink">
    <!-- Generator: Sketch 51.3 (57544) - http://www.bohemiancoding.com/sketch -->
    <title>Group</title>
    <desc>Created with Sketch.</desc>
    <defs>
        <polygon id="path-1" points="0 0 155.6066 0 155.6066 125.5175 0 125.5175"></polygon>
        <linearGradient x1="0%" y1="0%" x2="101.999998%" y2="100.999999%" id="linearGradient-3">
            <stop stop-color="#5A266F" offset="0%"></stop>
            <stop stop-color="#C32788" offset="100%"></stop>
        </linearGradient>
    </defs>
    <g id="Landing" stroke="none" stroke-width="1" fill="none" fill-rule="evenodd">
        <g id="Desktop-1440-benefit-Copy-3" transform="translate(-365.000000, -643.000000)">
            <g id="Group" transform="translate(365.000000, 642.000000)">
                <g id="Group-3" transform="translate(0.000000, 0.957000)">
                    <mask id="mask-2" fill="white">
                        <use xlink:href="#path-1"></use>
                    </mask>
                    <g id="Clip-2"></g>
                    <path d="M151.607,121.518 L87.725,121.518 L87.725,61.706 L97.698,61.706 L87.725,51.734 L87.725,17.694 L147.344,17.694 C149.695,17.694 151.607,19.606 151.607,21.956 L151.607,121.518 Z M49.682,88.538 L49.682,121.518 L39.843,121.518 L39.843,61.706 L83.725,61.706 L83.725,121.518 L73.885,121.518 L73.885,88.538 L49.682,88.538 Z M53.682,121.518 L69.885,121.518 L69.885,92.538 L53.682,92.538 L53.682,121.518 Z M12.494,121.518 L35.843,121.518 L35.843,61.706 L12.494,61.706 L12.494,121.518 Z M12.495,4 L88.042,4 L61.189,30.853 L88.042,57.706 L12.495,57.706 L12.495,4 Z M83.725,17.694 L83.725,47.733 L66.845,30.853 L80.004,17.694 L83.725,17.694 Z M147.344,13.694 L84.004,13.694 L97.698,0 L8.495,0 L8.495,59.706 L8.495,61.706 L8.495,121.518 L0,121.518 L0,125.518 L155.607,125.518 L155.607,21.956 C155.607,17.401 151.9,13.694 147.344,13.694 Z" id="Fill-1" fill="url(#linearGradient-3)" mask="url(#mask-2)"></path>
                </g>
                <path d="M102,103.49 L138.102,103.49 L138.102,93 L102,93 L102,103.49 Z M98,107.49 L142.102,107.49 L142.102,89 L98,89 L98,107.49 Z" id="Fill-4" fill="url(#linearGradient-3)"></path>
                <path d="M102,78.49 L138.102,78.49 L138.102,68 L102,68 L102,78.49 Z M98,82.49 L142.102,82.49 L142.102,64 L98,64 L98,82.49 Z" id="Fill-6" fill="url(#linearGradient-3)"></path>
                <path d="M102,53.49 L138.102,53.49 L138.102,43 L102,43 L102,53.49 Z M98,57.49 L142.102,57.49 L142.102,39 L98,39 L98,57.49 Z" id="Fill-7" fill="url(#linearGradient-3)"></path>
                <polygon id="Fill-8" fill="url(#linearGradient-3)" points="35 138 155.764 138 155.764 134 35 134"></polygon>
                <polygon id="Fill-9" fill="url(#linearGradient-3)" points="84 151 155.882 151 155.882 147 84 147"></polygon>
                <path d="M40.213,16 L41.74,16 C46.293,16 49.996,19.703 49.996,24.256 L53.996,24.256 C53.996,17.498 48.498,12 41.74,12 L40.213,12 C33.455,12 27.957,17.498 27.957,24.256 L27.957,26.107 L22,26.107 L22,30.107 L27.957,30.107 L27.957,33.81 L22,33.81 L22,37.81 L27.957,37.81 L27.957,39.661 C27.957,46.419 33.455,51.917 40.213,51.917 L41.74,51.917 C48.498,51.917 53.996,46.419 53.996,39.661 L49.996,39.661 C49.996,44.214 46.293,47.917 41.74,47.917 L40.213,47.917 C35.66,47.917 31.957,44.214 31.957,39.661 L31.957,37.81 L44.009,37.81 L44.009,33.81 L31.957,33.81 L31.957,30.107 L44.009,30.107 L44.009,26.107 L31.957,26.107 L31.957,24.256 C31.957,19.703 35.66,16 40.213,16" id="Fill-10" fill="url(#linearGradient-3)"></path>
            </g>
        </g>
    </g>
</svg>