<?xml version="1.0" encoding="UTF-8"?>
<svg width="138px" height="147px" viewBox="0 0 138 147" version="1.1" xmlns="http://www.w3.org/2000/svg" xmlns:xlink="http://www.w3.org/1999/xlink">
    <!-- Generator: Sketch 51.3 (57544) - http://www.bohemiancoding.com/sketch -->
    <title>Group</title>
    <desc>Created with Sketch.</desc>
    <defs>
        <linearGradient x1="0%" y1="0%" x2="101.999998%" y2="100.999999%" id="linearGradient-1">
            <stop stop-color="#5A266F" offset="0%"></stop>
            <stop stop-color="#C32788" offset="100%"></stop>
        </linearGradient>
    </defs>
    <g id="Landing" stroke="none" stroke-width="1" fill="none" fill-rule="evenodd">
        <g id="Desktop-1440-benefit-Copy" transform="translate(-377.000000, -653.000000)" fill="url(#linearGradient-1)">
            <g id="Group" transform="translate(377.000000, 653.000000)">
                <polygon id="Fill-2" points="69.001 0 65 0.023 65.099 17.3 69.099 17.276"></polygon>
                <polygon id="Fill-3" points="123.962 24.818 121.122 22 109 34.214 111.84 37.033"></polygon>
                <polygon id="Fill-4" points="100.431 6.566 96.749 5 90 20.862 93.682 22.428"></polygon>
                <g id="Group-12" transform="translate(0.000000, 25.758000)">
                    <g id="Group-7">
                        <path d="M96.428,108.127 L81.215,92.914 L88.287,85.843 L96.428,93.984 L124.902,65.511 L131.974,72.582 L96.428,108.127 Z M64.5,102 C37.482,102 15.5,80.019 15.5,53 C15.5,25.981 37.482,4 64.5,4 C91.519,4 113.5,25.981 113.5,53 C113.5,62.259 110.917,70.926 106.436,78.32 L96.428,88.328 L88.287,80.187 L75.559,92.914 L81.572,98.927 C76.252,100.91 70.502,102 64.5,102 Z M13.584,82.069 L20.216,82.069 C25.39,89.925 32.59,96.326 41.074,100.525 C29.902,97.721 20.241,91.071 13.584,82.069 Z M13.827,68.535 C14.85,71.864 16.192,75.054 17.818,78.069 L10.92,78.069 C9.134,75.082 7.663,71.888 6.539,68.535 L13.827,68.535 Z M11.551,51 L4.051,51 C4.183,47.73 4.639,44.542 5.384,41.466 L12.78,41.466 C12.091,44.553 11.673,47.738 11.551,51 Z M4.051,55 L11.551,55 C11.673,58.263 12.091,61.448 12.78,64.535 L5.385,64.535 C4.639,61.458 4.183,58.271 4.051,55 Z M10.92,27.931 L17.818,27.931 C16.192,30.946 14.85,34.137 13.827,37.466 L6.539,37.466 C7.663,34.112 9.134,30.918 10.92,27.931 Z M41.074,5.475 C32.59,9.674 25.39,16.075 20.216,23.931 L13.584,23.931 C20.241,14.929 29.902,8.279 41.074,5.475 Z M114.653,70.105 C116.489,64.733 117.5,58.984 117.5,53 C117.5,23.775 93.725,0 64.5,0 L53,0 C23.776,0 0,23.775 0,53 C0,82.225 23.776,106 53,106 L64.5,106 C71.633,106 78.437,104.575 84.654,102.009 L96.428,113.783 L137.63,72.582 L124.902,59.855 L114.653,70.105 Z" id="Fill-5"></path>
                    </g>
                    <path d="M83.57,63.852 L79.57,63.852 C79.57,70.209 74.398,75.382 68.041,75.382 L66.026,75.382 C59.669,75.382 54.497,70.209 54.497,63.852 L54.497,60.772 L71.033,60.772 L71.033,56.772 L54.497,56.772 L54.497,50.611 L71.033,50.611 L71.033,46.611 L54.497,46.611 L54.497,43.53 C54.497,37.172 59.669,32 66.026,32 L68.041,32 C74.398,32 79.57,37.172 79.57,43.53 L83.57,43.53 C83.57,34.967 76.603,28 68.041,28 L66.026,28 C57.464,28 50.497,34.967 50.497,43.53 L50.497,46.611 L42,46.611 L42,50.611 L50.497,50.611 L50.497,56.772 L42,56.772 L42,60.772 L50.497,60.772 L50.497,63.852 C50.497,72.415 57.464,79.382 66.026,79.382 L68.041,79.382 C76.603,79.382 83.57,72.415 83.57,63.852" id="Fill-8"></path>
                    <polygon id="Fill-10" points="133.236 88 103 118.235 105.828 121.063 136.064 90.828 134.65 89.414"></polygon>
                </g>
            </g>
        </g>
    </g>
</svg>