<?xml version="1.0" encoding="UTF-8"?>
<svg width="188px" height="172px" viewBox="0 0 188 172" version="1.1" xmlns="http://www.w3.org/2000/svg" xmlns:xlink="http://www.w3.org/1999/xlink">
    <!-- Generator: Sketch 51.3 (57544) - http://www.bohemiancoding.com/sketch -->
    <title>Group</title>
    <desc>Created with Sketch.</desc>
    <defs>
        <linearGradient x1="0%" y1="0%" x2="101.999998%" y2="100.999999%" id="linearGradient-1">
            <stop stop-color="#5A266F" offset="0%"></stop>
            <stop stop-color="#C32788" offset="100%"></stop>
        </linearGradient>
    </defs>
    <g id="Landing" stroke="none" stroke-width="1" fill="none" fill-rule="evenodd">
        <g id="Desktop-1440-hero1" transform="translate(-344.000000, -3328.000000)" fill="url(#linearGradient-1)">
            <g id="Group" transform="translate(344.000000, 3328.000000)">
                <path d="M116.931,128.577919 L108.32,112.166919 L130.095,90.3919188 L129.016,110.934919 C128.817,114.718919 127.232,118.275919 124.555,120.954919 L116.931,128.577919 Z M93.012,121.818919 L77.27,106.077919 L99.569,83.7789188 L96.741,80.9509188 L74.442,103.249919 L58.701,87.5089188 L105.352,40.8569188 C122.605,23.6029188 142.028,33.6149188 145.126,35.3929188 C146.909,38.5019188 156.912,57.9189188 139.663,75.1679188 L93.012,121.818919 Z M76.363,124.402919 L56.117,104.156919 L61.014,95.4779188 L85.042,119.505919 L76.363,124.402919 Z M51.673,63.3199188 L59.297,55.6959188 C61.975,53.0179188 65.533,51.4339188 69.315,51.2349188 L90.426,50.1269188 L68.437,72.1159188 L51.673,63.3199188 Z M133.01,111.144919 L134.322,86.1659188 L142.491,77.9959188 C163.188,57.2999188 148.432,33.1149188 148.28,32.8729188 L148.036,32.4829188 L147.647,32.2389188 C147.405,32.0879188 123.221,17.3309188 102.524,38.0289188 L94.653,45.8999188 L69.105,47.2409188 C64.334,47.4919188 59.847,49.4899188 56.469,52.8679188 L45,64.3359188 L65.473,75.0789188 L53.044,87.5089188 L58.077,92.5419188 L51.14,104.836919 L75.682,129.379919 L87.978,122.441919 L93.012,127.474919 L105.357,115.129919 L115.915,135.249919 L127.383,123.782919 C130.761,120.404919 132.759,115.916919 133.01,111.144919 Z" id="Fill-1"></path>
                <polygon id="Fill-3" points="48 135.215 50.828 138.043 62.042 126.828 59.214 124"></polygon>
                <polygon id="Fill-5" points="48.215 120 37 131.214 39.828 134.042 51.043 122.828"></polygon>
                <path d="M128.4905,62.491125 C127.1075,63.874125 125.2695,64.635125 123.3145,64.635125 C121.3595,64.635125 119.5215,63.874125 118.1385,62.491125 C116.7565,61.108125 115.9945,59.270125 115.9945,57.314125 C115.9945,55.359125 116.7565,53.521125 118.1385,52.138125 C119.5655,50.712125 121.4405,49.998125 123.3145,49.998125 C125.1885,49.998125 127.0635,50.712125 128.4905,52.138125 C131.3445,54.993125 131.3445,59.637125 128.4905,62.491125 M115.3105,49.310125 C110.8965,53.723125 110.8965,60.906125 115.3105,65.319125 C117.4485,67.458125 120.2905,68.635125 123.3145,68.635125 C126.3385,68.635125 129.1805,67.458125 131.3185,65.319125 C135.7325,60.906125 135.7325,53.723125 131.3185,49.310125 C126.9065,44.896125 119.7235,44.897125 115.3105,49.310125" id="Fill-7"></path>
                <path d="M14.926,37.041 C14.926,34.279 17.173,32.032 19.934,32.032 L19.934,28.032 L9.008,28.032 C6.246,28.032 4,25.786 4,23.024 C4,20.263 6.246,18.016 9.008,18.016 L17.883,18.016 L17.883,14.016 C15.121,14.016 12.874,11.77 12.874,9.008 C12.874,6.246 15.121,4 17.883,4 L59.748,4 C62.509,4 64.756,6.246 64.756,9.008 C64.756,11.77 62.509,14.016 59.748,14.016 L59.748,18.016 L72.954,18.016 C75.716,18.016 77.963,20.263 77.963,23.024 C77.963,25.786 75.716,28.032 72.954,28.032 L44.474,28.032 L44.474,32.032 C47.236,32.032 49.482,34.279 49.482,37.041 C49.482,39.803 47.236,42.049 44.474,42.049 L19.934,42.049 C17.173,42.049 14.926,39.803 14.926,37.041 M53.482,37.041 C53.482,35.188 52.92,33.466 51.958,32.032 L72.954,32.032 C77.922,32.032 81.963,27.991 81.963,23.024 C81.963,18.057 77.922,14.016 72.954,14.016 L67.233,14.016 C68.194,12.583 68.756,10.859 68.756,9.008 C68.756,4.041 64.715,0 59.748,0 L17.883,0 C12.915,0 8.874,4.041 8.874,9.008 C8.874,10.859 9.436,12.583 10.398,14.016 L9.008,14.016 C4.041,14.016 0,18.057 0,23.024 C0,27.991 4.041,32.032 9.008,32.032 L12.45,32.032 C11.488,33.466 10.926,35.188 10.926,37.041 C10.926,42.008 14.967,46.049 19.934,46.049 L44.474,46.049 C49.441,46.049 53.482,42.008 53.482,37.041" id="Fill-9"></path>
                <g id="Group-13" transform="translate(117.000000, 139.185000)">
                    <path d="M52.955,14.017 L48.08,14.017 L48.08,18.017 C50.842,18.017 53.088,20.263 53.088,23.025 C53.088,25.787 50.842,28.034 48.08,28.034 L19.215,28.034 C16.453,28.034 14.206,25.787 14.206,23.025 C14.206,20.263 16.453,18.017 19.215,18.017 L19.215,14.017 L9.009,14.017 C6.247,14.017 4,11.771 4,9.009 C4,6.247 6.247,4 9.009,4 L52.955,4 C55.717,4 57.963,6.247 57.963,9.009 C57.963,11.771 55.717,14.017 52.955,14.017 M52.955,0 L9.009,0 C4.041,0 0,4.041 0,9.009 C0,13.976 4.041,18.017 9.009,18.017 L11.73,18.017 C10.768,19.45 10.206,21.173 10.206,23.025 C10.206,27.993 14.247,32.034 19.215,32.034 L48.08,32.034 C53.047,32.034 57.088,27.993 57.088,23.025 C57.088,21.033 56.438,19.19 55.339,17.697 C59.153,16.649 61.963,13.151 61.963,9.009 C61.963,4.041 57.922,0 52.955,0" id="Fill-11"></path>
                </g>
                <path d="M178.548,129.017 L157.008,129.017 C154.247,129.017 152,126.771 152,124.009 C152,121.247 154.247,119 157.008,119 L178.548,119 C181.31,119 183.556,121.247 183.556,124.009 C183.556,126.771 181.31,129.017 178.548,129.017 M178.548,115 L157.008,115 C152.041,115 148,119.041 148,124.009 C148,128.976 152.041,133.017 157.008,133.017 L178.548,133.017 C183.515,133.017 187.556,128.976 187.556,124.009 C187.556,119.041 183.515,115 178.548,115" id="Fill-14"></path>
            </g>
        </g>
    </g>
</svg>