<?xml version="1.0" encoding="UTF-8"?>
<svg width="171px" height="145px" viewBox="0 0 171 145" version="1.1" xmlns="http://www.w3.org/2000/svg" xmlns:xlink="http://www.w3.org/1999/xlink">
    <!-- Generator: Sketch 51.3 (57544) - http://www.bohemiancoding.com/sketch -->
    <title>Group</title>
    <desc>Created with Sketch.</desc>
    <defs>
        <linearGradient x1="0%" y1="0%" x2="101.999998%" y2="100.999999%" id="linearGradient-1">
            <stop stop-color="#5A266F" offset="0%"></stop>
            <stop stop-color="#C32788" offset="100%"></stop>
        </linearGradient>
    </defs>
    <g id="Landing" stroke="none" stroke-width="1" fill="none" fill-rule="evenodd">
        <g id="Desktop-1440-benefit-Copy-2" transform="translate(-355.000000, -644.000000)">
            <g id="Group" transform="translate(355.000000, 644.000000)">
                <path d="M148,59 L148,59.001" id="Stroke-3" stroke-linecap="round" stroke-linejoin="round"></path>
                <path d="M29,38.781 L44.781,38.781 L44.781,23 L29,23 L29,38.781 Z M25,42.781 L48.781,42.781 L48.781,19 L25,19 L25,42.781 Z" id="Fill-4" fill="url(#linearGradient-1)"></path>
                <path d="M62,38.781 L77.782,38.781 L77.782,23 L62,23 L62,38.781 Z M58,42.781 L81.782,42.781 L81.782,19 L58,19 L58,42.781 Z" id="Fill-5" fill="url(#linearGradient-1)"></path>
                <path d="M96,38.781 L111.781,38.781 L111.781,23 L96,23 L96,38.781 Z M92,42.781 L115.781,42.781 L115.781,19 L92,19 L92,42.781 Z" id="Fill-6" fill="url(#linearGradient-1)"></path>
                <g id="Group-9" transform="translate(0.000000, 0.465000)" fill="url(#linearGradient-1)">
                    <path d="M164.32,85.692 L111.26,138.753 C108.974,141.038 105.255,141.038 102.968,138.753 L96.486,132.269 L157.837,70.918 L164.32,77.401 C165.427,78.508 166.038,79.981 166.038,81.546 C166.038,83.112 165.427,84.585 164.32,85.692 Z M95.264,113.347 L102.507,120.591 L93.658,129.441 L86.414,122.198 L95.264,113.347 Z M74.885,108.241 C74.885,106.674 75.496,105.202 76.603,104.094 L129.663,51.035 C130.805,49.892 132.307,49.321 133.808,49.321 C135.31,49.321 136.811,49.892 137.955,51.035 L144.937,58.018 L83.586,119.37 L76.603,112.386 C75.496,111.279 74.885,109.806 74.885,108.241 Z M86.937,82.757 L83.861,82.757 C81.908,82.757 79.627,81.855 79.627,79.312 L79.627,77.789 L91.173,77.789 L91.173,79.312 C91.173,81.855 88.891,82.757 86.937,82.757 Z M71.391,82.757 L68.315,82.757 C66.361,82.757 64.08,81.855 64.08,79.312 L64.08,77.789 L75.627,77.789 L75.627,79.312 C75.627,81.855 73.345,82.757 71.391,82.757 Z M55.844,82.757 L52.769,82.757 C50.815,82.757 48.534,81.855 48.534,79.312 L48.534,77.789 L60.08,77.789 L60.08,79.312 C60.08,81.855 57.799,82.757 55.844,82.757 Z M40.299,82.757 L37.223,82.757 C35.269,82.757 32.988,81.855 32.988,79.312 L32.988,77.789 L44.534,77.789 L44.534,79.312 C44.534,81.855 42.253,82.757 40.299,82.757 Z M24.753,82.757 L21.677,82.757 C19.723,82.757 17.442,81.855 17.442,79.312 L17.442,77.789 L27.488,77.789 L28.988,77.789 L28.988,79.312 C28.988,81.855 26.707,82.757 24.753,82.757 Z M4,73.789 L4,8.926 C4,6.21 6.211,4 8.927,4 L12.962,4 C12.022,5.413 11.471,7.106 11.471,8.926 L11.471,73.789 L4,73.789 Z M27.488,73.789 L15.471,73.789 L15.471,59.843 L115.198,59.843 L101.253,73.789 L27.488,73.789 Z M95.173,79.312 L95.173,77.789 L97.253,77.789 L95.23,79.811 C95.209,79.646 95.173,79.493 95.173,79.312 Z M147.266,75.832 L140.022,68.589 L147.765,60.846 L155.008,68.089 L147.266,75.832 Z M115.994,107.104 L108.751,99.861 L137.194,71.418 L144.438,78.66 L115.994,107.104 Z M105.336,117.762 L98.092,110.519 L105.923,102.689 L113.166,109.932 L105.336,117.762 Z M27.488,4 L100.855,4 C118.526,4 132.344,10.193 142.584,18.394 L125.472,18.394 L125.472,42.175 L161.618,42.175 C164.133,47.426 165.362,52.017 165.362,54.948 C165.362,60.718 163.94,65.635 161.581,69.005 L140.783,48.207 C136.937,44.361 130.678,44.361 126.835,48.207 L119.198,55.843 L15.471,55.843 L15.471,8.926 C15.471,6.21 17.682,4 20.399,4 L27.488,4 Z M159.514,38.175 L129.472,38.175 L129.472,22.394 L147.147,22.394 C152.451,27.471 156.556,33.004 159.514,38.175 Z M164.428,71.853 C167.51,67.772 169.362,61.865 169.362,54.948 C169.362,41.702 148.751,0 100.855,0 L27.488,0 L20.399,0 L8.927,0 C4.005,0 0,4.004 0,8.926 L0,77.789 L11.471,77.789 L13.442,77.789 L13.442,79.312 C13.442,83.627 16.906,86.757 21.677,86.757 L24.753,86.757 C27.327,86.757 29.513,85.84 30.988,84.324 C32.463,85.84 34.649,86.757 37.223,86.757 L40.299,86.757 C42.873,86.757 45.059,85.84 46.534,84.324 C48.008,85.84 50.195,86.757 52.769,86.757 L55.844,86.757 C58.419,86.757 60.605,85.84 62.08,84.324 C63.554,85.84 65.741,86.757 68.315,86.757 L71.391,86.757 C73.966,86.757 76.152,85.84 77.627,84.324 C79.1,85.84 81.287,86.757 83.861,86.757 L86.937,86.757 C87.439,86.757 87.923,86.715 88.393,86.648 L78.593,96.448 L13.452,96.448 L13.452,100.448 L74.593,100.448 L73.775,101.266 C71.995,103.046 70.989,105.389 70.902,107.893 L36.507,107.893 L36.507,111.893 L71.587,111.893 C72.077,113.122 72.811,114.252 73.775,115.214 L100.14,141.581 C102.063,143.504 104.59,144.464 107.115,144.464 C109.64,144.464 112.167,143.504 114.089,141.581 L167.148,88.52 C169.011,86.658 170.038,84.181 170.038,81.546 C170.038,78.912 169.011,76.435 167.148,74.573 L164.428,71.853 Z" id="Fill-7"></path>
                </g>
                <polygon id="Fill-10" fill="url(#linearGradient-1)" points="100.486 94.828 97.658 92 87 102.658 89.828 105.486"></polygon>
                <polygon id="Fill-12" fill="url(#linearGradient-1)" points="132.076 63.828 129.248 61 114 76.248 116.828 79.076"></polygon>
            </g>
        </g>
    </g>
</svg>