<?xml version="1.0" encoding="utf-8"?>
<!-- Generator: Adobe Illustrator 20.1.0, SVG Export Plug-In . SVG Version: 6.00 Build 0)  -->
<svg version="1.1" id="Layer_1" xmlns="http://www.w3.org/2000/svg" xmlns:xlink="http://www.w3.org/1999/xlink" x="0px" y="0px"
	 viewBox="0 0 256.4 256.4" style="enable-background:new 0 0 256.4 256.4;" xml:space="preserve">
<style type="text/css">
	.st0{fill:#FFFFFF;}
</style>
<g>
	<g>
		
			<rect x="194" y="143.6" transform="matrix(0.7071 -0.7071 0.7071 0.7071 -44.1265 184.2908)" class="st0" width="12.9" height="3.7"/>
		<rect x="202.5" y="163.9" class="st0" width="12.8" height="3.7"/>
		
			<rect x="198.2" y="179.8" transform="matrix(0.7071 -0.7071 0.7071 0.7071 -72.7143 195.8078)" class="st0" width="3.7" height="11.8"/>
		<path class="st0" d="M187,164c1.5-1.7,3.1-3.4,2.9-5.6c-0.2-2.2-2.2-3.8-3.9-5.1c-1.1-0.8-2.3-1.8-2.6-2.5
			c-0.3-0.8,0.1-2.3,0.3-3.7c0.5-2.1,1-4.6-0.3-6.4c-1.3-1.8-3.7-2.1-5.9-2.4c-1.4-0.2-2.9-0.4-3.6-0.9c-0.6-0.5-1.1-2-1.5-3.3
			c0,0,0-0.1,0-0.1l27.3-9.9c1.5-0.5,2.4-2,2.4-3.6s-1-3.1-2.4-3.6l-61.4-22.3c-7.2-2.6-15.1-2.6-22.3,0l-61.4,22.3
			c-1.5,0.5-2.5,2-2.5,3.6s1,3.1,2.5,3.6l15.5,5.7v44.5c-4.1,0.8-7.2,4.4-7.2,8.7c0,4.9,3.9,8.9,8.8,8.9c4.8,0,8.8-4,8.8-8.9
			c0-4.3-3.1-7.9-7.2-8.7v-43.3l11,4v27.2c0,0.4,0.2,4.3,5.9,8.1c6.6,4.3,17.7,6.6,33.2,6.9c-0.4,1.9-0.6,3.8,0.5,5.4
			c1.3,1.8,3.7,2.1,5.9,2.4c1.4,0.2,2.9,0.4,3.6,0.9c0.4,0.4,0.8,1.2,1.1,2.1l-6.9,23.8c-0.2,0.6,0,1.2,0.5,1.6
			c0.4,0.4,1.1,0.5,1.6,0.3l10.1-3.8l6.1,8.1c0.3,0.4,0.8,0.6,1.3,0.6c0.1,0,0.2,0,0.3,0c0.6-0.1,1.1-0.6,1.2-1.1l5.7-20.2
			c0.7,0.4,1.4,0.6,2.2,0.6c0.1,0,0.2,0,0.4,0c0.4,0,0.7-0.1,1-0.2l5.6,19.9c0.2,0.6,0.6,1,1.2,1.1c0.1,0,0.2,0,0.3,0
			c0.5,0,1-0.2,1.3-0.6l5.5-7.3c0.1,0,0.1,0,0.2,0c0.1,0,0.3,0,0.4-0.1c0.1,0,0.2-0.1,0.3-0.1l9.9,3.1c0.6,0.2,1.2,0,1.6-0.4
			c0.4-0.4,0.6-1,0.4-1.6l-7.2-24.7c-0.1-0.3-0.3-0.6-0.5-0.8c0-0.3,0.1-0.6,0.1-0.8c0.2-1.4,0.4-2.9,0.9-3.6c0.5-0.6,2-1.1,3.3-1.5
			c2.1-0.7,4.5-1.4,5.4-3.5c0.9-2,0-4.1-0.9-6.2c-0.5-1.3-1.1-2.8-1-3.6C185,166.2,186,165.1,187,164z M173.2,207.5L172,203
			c-0.2-0.9-1.1-1.4-2-1.1c-0.9,0.2-1.4,1.1-1.1,2l1.1,4.1l-4.3,5.7l-5.1-18c0.5-0.5,0.9-1.1,1.4-1.7c0.8-1.1,1.8-2.3,2.5-2.6
			c0.8-0.3,2.3,0.1,3.7,0.3c2.1,0.5,4.6,1,6.4-0.3c0.2-0.1,0.4-0.3,0.6-0.5l5.5,18.9L173.2,207.5z M183.8,175.6
			c-0.4,0.8-2,1.3-3.5,1.8c-1.8,0.6-3.6,1.1-4.8,2.5c-1.1,1.4-1.4,3.3-1.6,5.2c-0.1,1.2-0.3,2.5-0.7,3.2c-0.1,0.2-0.2,0.4-0.4,0.5
			c-0.4,0.3-1.1,0.3-1.9,0.1c-0.6-0.1-1.3-0.2-1.9-0.4c-1.9-0.4-3.8-0.8-5.4-0.2c-1.6,0.6-2.8,2.1-3.9,3.5c0,0.1-0.1,0.1-0.1,0.1
			c0,0-0.1,0.1-0.1,0.1c-0.3,0.4-0.7,0.9-1,1.3c-0.5,0.5-0.9,1-1.3,1.2c-0.1,0.1-0.3,0.1-0.4,0.1c-0.3,0-0.8-0.2-1.3-0.6
			c-0.4-0.3-0.9-0.7-1.4-1.1c-0.1-0.1-0.3-0.3-0.4-0.4c-0.2-0.1-0.3-0.3-0.5-0.4c-0.1-0.1-0.2-0.2-0.4-0.3c-1.2-1-2.4-1.9-3.8-2.2
			c-0.3-0.1-0.6-0.1-0.9-0.1c-0.9,0-1.7,0.2-2.6,0.5c-0.7,0.2-1.3,0.5-2,0.8c-1.3,0.6-3,1.2-3.7,0.9c-0.8-0.4-1.3-2-1.8-3.5
			c0-0.1-0.1-0.1-0.1-0.2l0,0c-0.2-0.6-0.4-1.1-0.6-1.7c-0.4-1.1-1-2.1-1.8-2.9c-1.4-1.1-3.3-1.4-5.2-1.6c-1.5-0.2-3.2-0.4-3.7-1.1
			c-0.4-0.6-0.2-2.1,0.2-3.5c0-0.1,0.1-0.2,0.1-0.4c0.1-0.4,0.2-0.8,0.3-1.2c0.1-0.5,0.2-1.1,0.2-1.6c0.1-0.9,0-1.8-0.3-2.6
			c-0.6-1.6-2.2-2.8-3.6-4c-1.2-0.9-2.6-2-2.7-2.9c-0.1-0.8,1.1-2.1,2.1-3.1c1.3-1.4,2.7-2.9,3-4.7c0.3-1.8-0.4-3.6-1.2-5.4
			c-0.4-1.1-0.9-2.3-1-3.1c0-0.2,0-0.4,0.1-0.6c0.2-0.4,0.6-0.6,1.2-0.9c0.7-0.3,1.5-0.6,2.3-0.8c0.7-0.2,1.4-0.5,2.1-0.7
			c1-0.4,2-0.9,2.6-1.7c1.1-1.4,1.4-3.3,1.6-5.2c0.2-1.5,0.4-3.2,1.1-3.7c0.7-0.5,2.4-0.1,3.9,0.2c1.9,0.4,3.8,0.8,5.4,0.2
			c0.6-0.2,1.2-0.6,1.7-1.1c0.8-0.7,1.6-1.7,2.3-2.6c0.9-1.2,2-2.6,2.9-2.7c0.7-0.1,2.1,1.1,3.1,2.1c1.4,1.3,2.9,2.6,4.7,3
			c1.8,0.3,3.6-0.4,5.4-1.2c1.3-0.6,3-1.2,3.7-0.9c0.2,0.1,0.4,0.3,0.6,0.6c0,0.1,0.1,0.1,0.1,0.2c0.2,0.4,0.4,0.8,0.6,1.3
			c0.2,0.5,0.3,1,0.5,1.5c0,0,0,0,0,0c0.2,0.5,0.3,1.1,0.5,1.6c0.4,1.2,1,2.4,2,3.2c1.4,1.1,3.3,1.4,5.2,1.6
			c1.5,0.2,3.2,0.4,3.7,1.1c0.5,0.7,0.1,2.4-0.2,3.9c-0.4,1.9-0.8,3.8-0.2,5.4c0.6,1.6,2.1,2.8,3.6,4c1.2,0.9,2.6,2,2.7,2.9
			c0.1,0.8-1.1,2.1-2.1,3.1c-1.3,1.4-2.6,2.9-3,4.7c-0.3,1.8,0.4,3.6,1.2,5.4C183.4,173.3,184.1,174.9,183.8,175.6z M141.9,207.4
			l1.2-4.8c0.2-0.9-0.3-1.7-1.1-1.9s-1.7,0.3-1.9,1.1l-1.3,5.2l-7.1,2.7l4.9-16.7c0.5,0.7,1.1,1.4,1.9,1.7c2,0.9,4.1,0,6.2-0.9
			c1.3-0.5,2.8-1.1,3.6-1c0.9,0.1,2,1.2,3.1,2.2c0.1,0.1,0.2,0.2,0.3,0.3l-5.1,18.3L141.9,207.4z M70.2,126.3l-14.4-5.3
			c-0.3-0.1-0.3-0.6-0.3-0.6s0-0.5,0.3-0.6l61.4-22.3c3.3-1.2,6.7-1.8,10-1.8s6.8,0.6,10,1.8l61.4,22.3c0.3,0.1,0.4,0.6,0.4,0.6
			s0,0.5-0.4,0.6l-27.3,9.9c-0.5-1-1.2-1.9-2.3-2.4c-2-0.9-4.1,0-6.2,0.9c-1.3,0.5-2.8,1.1-3.6,1c-0.9-0.1-2-1.2-3.1-2.2
			c-1.7-1.5-3.4-3.1-5.6-2.9c-2.2,0.2-3.8,2.2-5.1,4c-0.8,1.1-1.8,2.3-2.5,2.6c-0.8,0.3-2.3-0.1-3.7-0.3c-2.1-0.5-4.6-1-6.4,0.3
			c-0.7,0.5-1.2,1.2-1.6,2c-0.5,1.2-0.7,2.6-0.9,3.9c-0.2,1.4-0.4,2.9-0.9,3.6c-0.5,0.6-2,1.1-3.3,1.5c-1.5,0.5-3.1,1-4.2,1.9
			c-1.6-0.3-3.2-0.7-4.8-1.3L91,133.9l-17.6-6.4l-1.6-0.6L70.2,126.3z M87.6,136.1l28.4,10.4c1.4,0.5,2.9,0.9,4.3,1.2
			c-0.1,1.6,0.5,3.2,1.2,4.9c0.5,1.3,1.2,2.8,1,3.6c-0.2,0.9-1.2,2-2.2,3.1c-1.5,1.7-3.1,3.4-2.9,5.6c0.2,2.2,2.2,3.8,3.9,5.1
			c1.1,0.8,2.3,1.8,2.6,2.5c0.1,0.4,0.1,0.9,0.1,1.5c-35.4-0.6-36.4-11.7-36.4-11.8L87.6,136.1L87.6,136.1z M71.8,188.6
			c-3.1,0-5.6-2.5-5.6-5.6c0-2.6,1.7-4.7,3.9-5.4c0.5-0.2,1-0.2,1.6-0.2l0,0c0.6,0,1.1,0.1,1.6,0.2c2.3,0.7,3.9,2.9,3.9,5.4
			C77.4,186,74.9,188.6,71.8,188.6z"/>
		<path class="st0" d="M170,143.1c-0.5-0.4-1.1-0.8-1.6-1.2c-0.5-0.4-1.1-0.7-1.6-1.1c-1.8-1.1-3.8-2-5.9-2.6
			c-0.9-0.3-1.9-0.5-2.9-0.7c-1.2-0.2-2.4-0.3-3.7-0.4c-0.2,0-0.4,0-0.7,0c-6.4,0-12.3,2.4-16.8,6.4c-0.8,0.7-1.6,1.5-2.4,2.4
			c-0.6,0.6-1.1,1.3-1.6,2c-2.9,4.1-4.7,9.2-4.7,14.7c0,4.1,1,7.9,2.7,11.4c0.3,0.5,0.6,1.1,0.9,1.6c0.3,0.5,0.7,1.1,1,1.6
			c4.6,6.6,12.2,10.9,20.8,10.9c14,0,25.4-11.4,25.4-25.4C179.1,154.8,175.5,147.8,170,143.1z M136.8,176.9c-0.4-0.5-0.8-1-1.2-1.5
			c-0.4-0.5-0.7-1-1-1.6c-1.9-3.3-3.1-7.1-3.1-11.2c0-6.4,2.7-12.2,7.1-16.2c1.5-1.4,3.2-2.6,5-3.5c1.6-0.8,3.3-1.4,5.1-1.9
			c1.6-0.4,3.2-0.6,4.9-0.6c0.4,0,0.8,0,1.2,0c4.4,0.2,8.5,1.8,11.9,4.2c0.6,0.4,1.1,0.8,1.6,1.3c0.6,0.5,1.1,1,1.6,1.6
			c3.7,4,5.9,9.2,5.9,15c0,12.2-9.9,22.2-22.2,22.2C146.9,184.7,140.9,181.7,136.8,176.9z"/>
		<path class="st0" d="M170,157C170,157,170,157,170,157c-0.3-0.8-0.9-1.4-1.6-1.7c-0.3-0.1-0.7-0.2-1.1-0.2h-0.6H159l-2.6-7.9l0,0
			c-0.4-1.2-1.4-1.9-2.7-1.9c-1.2,0-2.3,0.8-2.7,1.9l-2.6,7.9h-8.3c-1.2,0-2.3,0.8-2.7,1.9c-0.4,1.2,0,2.4,1,3.1l6.7,4.9l-2.6,7.9
			c0,0.1,0,0.2-0.1,0.2c-0.1,0.5-0.1,1.1,0.1,1.6c0.2,0.5,0.5,1,1,1.3c0.1,0.1,0.2,0.1,0.3,0.2c0.9,0.5,2.1,0.5,3-0.2l0.4-0.3l3-2.2
			l3.3-2.4l1.6,1.1l1.6,1.2l3.6,2.6c0.5,0.4,1.1,0.5,1.6,0.5c0.6,0,1.2-0.2,1.7-0.5c1-0.7,1.4-2,1-3.1l-0.9-2.7l-0.5-1.6l-0.5-1.6
			l-0.7-2.1l4.5-3.3l1.6-1.2l0.6-0.4c0.5-0.4,0.8-0.8,1-1.4C170.2,158.2,170.2,157.6,170,157z M160.1,162.6c-1,0.7-1.4,2-1,3.1l1,3
			l0.5,1.5l0.5,1.5l0.3,0.9l-0.9-0.7L159,171l-1.5-1.1l-2.1-1.5c-0.5-0.4-1.1-0.5-1.6-0.5c-0.6,0-1.2,0.2-1.6,0.5l-5.9,4.3l-0.1,0.1
			l0-0.1l2.3-7c0.4-1.2,0-2.4-1-3.1l-6-4.4h7.4c1.2,0,2.3-0.8,2.7-1.9l2.3-7.1l2.3,7c0.4,1.2,1.4,1.9,2.7,1.9h7.4L160.1,162.6z"/>
	</g>
</g>
</svg>
