<?xml version="1.0" encoding="utf-8"?>
<!-- Generator: Adobe Illustrator 20.1.0, SVG Export Plug-In . SVG Version: 6.00 Build 0)  -->
<svg version="1.1" id="Layer_1" xmlns="http://www.w3.org/2000/svg" xmlns:xlink="http://www.w3.org/1999/xlink" x="0px" y="0px"
	 viewBox="0 0 256.4 256.4" style="enable-background:new 0 0 256.4 256.4;" xml:space="preserve">
<style type="text/css">
	.st0{fill:#FFFFFF;}
</style>
<g>
	<path class="st0" d="M101.9,116h-19v19h19V116L101.9,116z M98.7,131.8H86.1v-12.6h12.6V131.8L98.7,131.8z"/>
	<path class="st0" d="M128.8,116h-19v19h19V116L128.8,116z M125.6,131.8H113v-12.6h12.6V131.8L125.6,131.8z"/>
	<path class="st0" d="M155.7,116h-19v19h19V116z M152.5,131.8h-12.6v-12.6h12.6V131.8z"/>
	<path class="st0" d="M194.8,158.8c2.5-3.3,3.9-8,3.9-13.5c0-10.6-16.5-44-54.8-44H85.2h-5.7h-9.2c-3.9,0-7.1,3.2-7.1,7.1v55.1h9.2
		H74v1.2c0,3.4,2.8,6,6.6,6H83c2.1,0,3.8-0.7,5-1.9c1.2,1.2,2.9,1.9,5,1.9h2.5c2.1,0,3.8-0.7,5-1.9c1.2,1.2,2.9,1.9,5,1.9h2.5
		c2.1,0,3.8-0.7,5-1.9c1.2,1.2,2.9,1.9,5,1.9h2.5c2.1,0,3.8-0.7,5-1.9c1.2,1.2,2.9,1.9,5,1.9h2.5c0.4,0,0.8,0,1.2-0.1l-7.8,7.8H74
		v3.2h48.9l-0.7,0.6c-1.4,1.4-2.2,3.3-2.3,5.3H92.4v3.2h28.1c0.4,1,1,1.9,1.8,2.7l21.1,21.1c1.5,1.5,3.6,2.3,5.6,2.3s4-0.8,5.6-2.3
		l42.4-42.4c1.5-1.5,2.3-3.5,2.3-5.6s-0.8-4.1-2.3-5.6L194.8,158.8z M190.8,131.8h-24v-12.6h14.1
		C185.2,123.3,188.4,127.7,190.8,131.8z M85.2,104.5h58.7c14.1,0,25.2,4.9,33.4,11.5h-13.7v19h28.9c2,4.2,3,7.9,3,10.2
		c0,4.6-1.1,8.6-3,11.2l-16.6-16.6c-3.1-3.1-8.1-3.1-11.2,0l-6.1,6.1h-83v-37.5c0-2.2,1.8-3.9,3.9-3.9L85.2,104.5L85.2,104.5z
		 M147.5,195.5l-5.8-5.8l6.3-6.3l5.8,5.8L147.5,195.5z M156,187l-5.8-5.8l22.8-22.8l5.8,5.8L156,187z M181,162l-5.8-5.8l6.2-6.2
		l5.8,5.8L181,162z M139.4,164.8v-1.2h1.7l-1.6,1.6C139.4,165,139.4,164.9,139.4,164.8z M85.2,160.3h-9.6v-11.2h79.8l-11.2,11.2
		H85.2z M66.4,160.3v-51.9c0-2.2,1.8-3.9,3.9-3.9h3.2c-0.8,1.1-1.2,2.5-1.2,3.9v51.9H66.4z M83,167.5h-2.5c-1.6,0-3.4-0.7-3.4-2.8
		v-1.2h8h1.2v1.2C86.4,166.8,84.6,167.5,83,167.5z M95.4,167.5H93c-1.6,0-3.4-0.7-3.4-2.8v-1.2h9.2v1.2
		C98.8,166.8,97,167.5,95.4,167.5z M107.9,167.5h-2.5c-1.6,0-3.4-0.7-3.4-2.8v-1.2h9.2v1.2C111.3,166.8,109.4,167.5,107.9,167.5z
		 M120.3,167.5h-2.5c-1.6,0-3.4-0.7-3.4-2.8v-1.2h9.2v1.2C123.7,166.8,121.9,167.5,120.3,167.5z M132.8,167.5h-2.5
		c-1.6,0-3.4-0.7-3.4-2.8v-1.2h9.2v1.2C136.1,166.8,134.3,167.5,132.8,167.5z M123.1,187.9c0-1.2,0.5-2.4,1.4-3.3l42.4-42.4
		c0.9-0.9,2.1-1.4,3.3-1.4s2.4,0.5,3.3,1.4l5.6,5.6L130,196.9l-5.6-5.6C123.6,190.3,123.1,189.1,123.1,187.9z M139.4,192l5.8,5.8
		l-7.1,7.1l-5.8-5.8L139.4,192z M194.7,169.9l-42.4,42.4c-1.8,1.8-4.8,1.8-6.6,0l-5.2-5.2l49.1-49.1l5.2,5.2
		c0.9,0.9,1.4,2.1,1.4,3.3C196,167.8,195.6,169,194.7,169.9z"/>
	
		<rect x="132.3" y="178.5" transform="matrix(0.7071 -0.7071 0.7071 0.7071 -86.8345 150.5706)" class="st0" width="12.1" height="3.2"/>
	
		<rect x="152.9" y="155.3" transform="matrix(0.7071 -0.7071 0.7071 0.7071 -63.6656 160.1467)" class="st0" width="17.2" height="3.2"/>
</g>
</svg>
