<?xml version="1.0" encoding="utf-8"?>
<!-- Generator: Adobe Illustrator 20.1.0, SVG Export Plug-In . SVG Version: 6.00 Build 0)  -->
<svg version="1.1" id="Layer_1" xmlns="http://www.w3.org/2000/svg" xmlns:xlink="http://www.w3.org/1999/xlink" x="0px" y="0px"
	 viewBox="0 0 256.4 256.4" style="enable-background:new 0 0 256.4 256.4;" xml:space="preserve">
<style type="text/css">
	.st0{fill:#FFFFFF;}
</style>
<g>
	<g>
		<path class="st0" d="M64.7,109.5h2.5v35.3c0,0.9,0.7,1.6,1.6,1.6s1.6-0.7,1.6-1.6v0v-35h114.8v34.4v0c0,0.9,0.7,1.6,1.6,1.6
			s1.6-0.7,1.6-1.6v-34.7h2.5c3.2,0,5.9-2.6,5.9-5.9v-1.8c0-3.2-2.6-5.9-5.9-5.9H64.7c-3.2,0-5.9,2.6-5.9,5.9v1.8
			C58.8,106.8,61.5,109.5,64.7,109.5z M62,101.8c0-1.5,1.2-2.7,2.7-2.7h126.2c1.5,0,2.7,1.2,2.7,2.7v1.8c0,1.5-1.2,2.7-2.7,2.7H64.7
			c-1.5,0-2.7-1.2-2.7-2.7V101.8z"/>
		<path class="st0" d="M85.2,127.8h18.7c0.9,0,1.6-0.7,1.6-1.6s-0.7-1.6-1.6-1.6H85.2c-0.9,0-1.6,0.7-1.6,1.6S84.3,127.8,85.2,127.8
			z"/>
		<path class="st0" d="M168.9,126.2c0-0.9-0.7-1.6-1.6-1.6H117c-0.9,0-1.6,0.7-1.6,1.6s0.7,1.6,1.6,1.6h50.3
			C168.2,127.8,168.9,127,168.9,126.2z"/>
		<path class="st0" d="M186.1,179c4.1-2.5,6.8-7,6.8-12.1c0-7.9-6.4-14.3-14.3-14.3c-7.9,0-14.3,6.4-14.3,14.3
			c0,5.1,2.7,9.6,6.8,12.1c-8.2,2.5-14.7,8.8-17.4,16.9c-2.7-8.1-9.2-14.5-17.4-16.9c4.1-2.5,6.8-7,6.8-12.1
			c0-7.9-6.4-14.3-14.3-14.3s-14.3,6.4-14.3,14.3c0,5.1,2.7,9.6,6.8,12.1c-8.1,2.4-14.5,8.6-17.2,16.6c-2.7-7.9-9.2-14.1-17.2-16.6
			c4.1-2.5,6.8-7,6.8-12.1c0-7.9-6.4-14.3-14.3-14.3s-14.3,6.4-14.3,14.3c0,5.1,2.7,9.6,6.8,12.1c-10.8,3.2-18.7,13.3-18.7,25.1
			c0,0.9,0.7,1.6,1.6,1.6c0.9,0,1.6-0.7,1.6-1.6l0,0c0-12.3,9.8-22.4,22-23c0.4,0,0.7,0.1,1.1,0.1c0.4,0,0.7,0,1.1-0.1
			c12.2,0.6,21.9,10.7,21.9,23l0,0c0,0.9,0.7,1.6,1.6,1.6c0.1,0,0.1,0,0.2,0c0.1,0,0.1,0,0.2,0c0.9,0,1.6-0.7,1.6-1.6l0,0
			c0-12.3,9.8-22.4,21.9-23c0.4,0,0.7,0.1,1.1,0.1s0.7,0,1.1-0.1c12.2,0.6,21.9,10.7,21.9,23l0,0c0,0.9,0.7,1.6,1.6,1.6
			c0.1,0,0.2,0,0.3,0c0.1,0,0.2,0,0.3,0c0.9,0,1.6-0.7,1.6-1.6l0,0c0-12.3,9.8-22.4,21.9-23c0.4,0,0.7,0.1,1.1,0.1s0.7,0,1.1-0.1
			c12.2,0.6,21.9,10.7,21.9,23l0,0c0,0.9,0.7,1.6,1.6,1.6s1.6-0.7,1.6-1.6C204.8,192.3,196.9,182.2,186.1,179z M178.5,155.8
			c6.1,0,11.1,5,11.1,11.1c0,5.8-4.4,10.5-10,11c-0.4,0-0.7,0.1-1.1,0.1s-0.7,0-1.1-0.1c-5.6-0.5-10-5.3-10-11
			C167.4,160.8,172.4,155.8,178.5,155.8z M139.8,166.9c0,5.8-4.4,10.5-10,11c-0.4,0-0.7,0.1-1.1,0.1c-0.4,0-0.7,0-1.1-0.1
			c-5.6-0.5-10-5.3-10-11c0-6.1,5-11.1,11.1-11.1C134.8,155.8,139.8,160.8,139.8,166.9z M79.1,155.8c6.1,0,11.1,5,11.1,11.1
			c0,5.8-4.4,10.5-10,11c-0.4,0-0.7,0.1-1.1,0.1c-0.4,0-0.7,0-1.1-0.1c-5.6-0.5-10-5.3-10-11C68,160.8,73,155.8,79.1,155.8z"/>
		<path class="st0" d="M85.2,140.6H155c0.9,0,1.6-0.7,1.6-1.6s-0.7-1.6-1.6-1.6H85.2c-0.9,0-1.6,0.7-1.6,1.6S84.3,140.6,85.2,140.6z
			"/>
	</g>
</g>
</svg>
