<?xml version="1.0" encoding="utf-8"?>
<!-- Generator: Adobe Illustrator 20.1.0, SVG Export Plug-In . SVG Version: 6.00 Build 0)  -->
<svg version="1.1" id="Layer_1" xmlns="http://www.w3.org/2000/svg" xmlns:xlink="http://www.w3.org/1999/xlink" x="0px" y="0px"
	 viewBox="0 0 256.4 256.4" style="enable-background:new 0 0 256.4 256.4;" xml:space="preserve">
<style type="text/css">
	.st0{fill:#FFFFFF;}
</style>
<g>
	<path class="st0" d="M186.5,163c-3.6-2.5-11.3-4.2-14.4-4.8l-1-3.6c1.5,0.5,3.5,0.8,5.8,0.8c2.1,0,4.3-0.3,6.6-0.9l1.2-0.3V153
		c0-0.2-0.6-25.2-0.6-26.9c0-2.4-0.5-10.6-6.6-16.7c-4.5-4.5-10.9-6.8-19-6.8c-18.8,0-24.4,14-24.8,22.3c-0.1,1.6-1.1,27.2-1.1,27.2
		l-0.1,1.2l1.2,0.4c4.6,1.4,9.6,1,12.5-0.2l-0.9,4.5c-2.7,0.7-9.4,2.5-13.1,4.4c-3.4,1.7-5.6,4.8-7,7.9c-4.2-1.4-8.4-2.2-10.8-2.7
		c1-1.2,1.9-2.5,2.8-3.9c3.8-6.1,5.4-12.1,5.5-12.3l0.1-0.2v-5.8l0.2-0.4c0.6-1.1,5.4-10.5,6-14.3v-0.2v-0.2
		c0-0.3-1.8-32.4-31.2-32.4c-26.5,0-31.3,30.2-31.3,30.5v0.2v0.2c0.6,4.2,5.4,12.4,6.4,14.1l-0.1,8.1l0.1,0.2
		c0.1,0.2,1.5,6.3,5.3,12.4c0.8,1.3,1.6,2.4,2.4,3.5c-4.1,0.9-12.1,3.1-16.7,6.3c-7.6,5.4-8.7,18.2-8.7,18.8l-0.1,1.7h87.2l0.1-1.5
		c0-0.3,0.2-5.8-2.4-11.2h53l0.1-1.5C193.1,179.2,193.4,167.7,186.5,163z M58.5,190.8c0.5-3.5,2.3-11.2,7.2-14.7
		c4.8-3.4,14.4-5.6,17.2-6.2c0.1,0.1,0.2,0.2,0.4,0.4c0,0,0,0,0.1,0c3.8,3.6,8.1,5.6,12.8,6c0.1,0,0.2,0,0.3,0
		c0.4,0,0.9,0.1,1.3,0.1s0.8,0,1.3-0.1c0.1,0,0.2,0,0.3,0c4.1-0.3,7.9-2,11.4-4.9c0.1,0,0.1-0.1,0.2-0.1c0.3-0.3,0.7-0.6,1-0.9h0.3
		c0.8,0.1,6.6,1.1,12.1,2.9c0.5,0.2,1,0.3,1.5,0.5s1,0.4,1.5,0.6c1.8,0.7,3.6,1.6,4.9,2.5c0.6,0.4,1.1,0.8,1.5,1.2
		c0.5,0.5,1,1,1.4,1.6c0.4,0.5,0.8,1,1.1,1.6c2.1,3.5,2.6,7.4,2.8,9.6L58.5,190.8L58.5,190.8z M133.9,174.2c-1.6-1.1-3.6-2-5.7-2.9
		c1.1-2.5,2.9-4.9,5.4-6.2c3-1.6,8.7-3.2,11.7-4c0.9,2.1,4.2,7,13.2,7s12.7-5,13.7-6.7c3.7,0.8,9.8,2.3,12.5,4.1
		c4.1,2.8,5,9.4,5.1,12.4h-51.9C136.9,176.6,135.6,175.3,133.9,174.2z M135.9,150.9c0.2-5.2,0.9-24.6,1-25.9
		c0.1-2,1.4-19.2,21.6-19.2c7.2,0,12.9,2,16.8,5.9c5.3,5.3,5.7,12.4,5.7,14.5c0,1.5,0.4,20.5,0.5,25.7c-3.6,0.8-7,0.5-8.9,0
		c2.3-3.1,3.7-6.5,4.4-8.9c0.6-1.6,0.9-2.7,0.9-2.8l0.1-0.2v-14.1h-0.2v-0.1h-2.7c-2.4,0-11.4-0.3-18.1-4.2c-3-1.8-5.5-4.2-6.8-7.7
		c-0.2-0.4-0.4-0.7-0.8-0.9c-0.3-0.2-0.6-0.3-1-0.4c-1.1-0.1-2.2-0.1-9,14.5l-0.1,0.3l-0.1,12.3v0.1c0.1,0.3,1.1,5.9,4.9,11.2
		C142,151.4,138.9,151.6,135.9,150.9z M169.2,159.5l0.1,0.6c-0.8,1.3-3.7,4.9-10.8,4.9c-7.6,0-9.8-4.1-10.3-5.2l0.1-0.6l0.7-3.3
		c2.9,2.2,6.1,3.3,9.6,3.3c3.9,0,7-1.4,9.6-3.4L169.2,159.5z M158.6,156.1c-11.3,0-15.7-14.9-16.1-16.7l0.1-11.2
		c1.9-4,4.1-8.4,5.5-10.8c1.7,2.9,4,5,6.7,6.7c6.8,4.2,15.6,4.9,19.7,5v10.4c-0.1,0.3-0.2,1.2-0.6,2.4
		C172.2,146.4,167.4,156.1,158.6,156.1z M72.8,136.4c-1.4-2.8-2.8-5.8-3.2-7.7c0.2-1.3,1.5-7.6,5.1-13.8c5.3-9.1,13.1-13.7,23-13.7
		c11,0,19.1,4.9,24,14.5c3.4,6.7,4,13.6,4.1,14.7c-0.3,1.7-1.7,4.9-3,7.8v-5h-0.1l0,0h-3c-2.8,0-10-0.3-17.1-2.6
		C94,128,88.4,123.4,86,117c-0.3-0.7-0.9-1.2-1.6-1.2c-0.1,0-0.2,0-0.2,0c-1.1,0-2.8,0.8-11.3,18.8l-0.2,0.3L72.8,136.4z
		 M75.9,150.7l0.1-15c2.8-6,6.1-12.4,7.9-15.3c7.2,14.2,27.5,15.9,35,16.1c0.1,0,0.2,0,0.3,0c0.1,0,0.2,0,0.3,0v9.4h0.1v5
		c-0.4,1.5-3.4,11-9.8,17.2c-0.3,0.3-0.6,0.5-0.9,0.8c-0.2,0.1-0.3,0.3-0.4,0.4c-0.4,0.3-0.8,0.6-1.2,0.9c-0.1,0.1-0.3,0.2-0.4,0.3
		c-0.3,0.2-0.6,0.4-0.9,0.6c-0.2,0.1-0.3,0.2-0.5,0.3c-0.3,0.2-0.7,0.4-1,0.5c-0.1,0.1-0.2,0.1-0.3,0.2c-0.4,0.2-0.9,0.4-1.4,0.5
		c-0.2,0.1-0.3,0.1-0.4,0.1c-0.3,0.1-0.7,0.2-1,0.3c-0.2,0-0.3,0.1-0.5,0.1c-0.3,0.1-0.7,0.1-1.1,0.2c-0.2,0-0.3,0-0.5,0.1
		c-0.2,0-0.5,0-0.8,0.1c-0.3,0-0.5,0-0.8,0c-0.4,0-0.9,0-1.3-0.1c-0.1,0-0.2,0-0.3,0c-0.4,0-0.9-0.1-1.3-0.2s-0.8-0.2-1.2-0.3l0,0
		C81.3,169.5,76.4,152.6,75.9,150.7z"/>
	<g>
		<path class="st0" d="M153.2,143.2c-0.8,0.4-1.1,1.4-0.6,2.2c1.2,2.2,3.6,3.6,6.1,3.6c2.8,0,5.2-1.4,6.3-3.7c0.4-0.8,0-1.7-0.8-2.1
			c-0.8-0.4-1.7,0-2.1,0.8c-0.5,1.1-1.8,1.9-3.4,1.9c-1.4,0-2.6-0.8-3.3-1.9C154.9,143.1,153.9,142.8,153.2,143.2z"/>
		<path class="st0" d="M151.8,135.7c0.4,0.8,1.3,1.1,2.1,0.7c0.8-0.4,1.1-1.3,0.7-2.1c-0.4-0.9-1.9-2.4-4.3-2.4
			c-2.4,0-3.8,1.6-4.2,2.5c-0.3,0.8,0,1.7,0.9,2.1c0.2,0.1,0.4,0.1,0.6,0.1c0.6,0,1.2-0.4,1.5-1c0,0,0.3-0.6,1.2-0.6
			C151.4,135,151.8,135.6,151.8,135.7z"/>
		<path class="st0" d="M163.1,136.4c0.2,0.1,0.4,0.1,0.6,0.1c0.6,0,1.2-0.4,1.5-1c0,0,0.3-0.6,1.2-0.6c1,0,1.4,0.6,1.4,0.7
			c0.4,0.8,1.3,1.1,2.1,0.7c0.8-0.4,1.1-1.3,0.7-2.1c-0.4-0.9-1.9-2.4-4.3-2.4c-2.4,0-3.8,1.6-4.2,2.5
			C161.9,135.2,162.3,136.1,163.1,136.4z"/>
		<path class="st0" d="M220.3,113.5c-14.3,0-25.9,11.6-25.9,25.9c0,2.8,0.4,5.4,1.3,8l-7.1,8.7c-0.4,0.5-0.5,1.1-0.2,1.7
			c0.3,0.6,0.8,0.9,1.4,0.9h13.3c4.8,4.2,10.9,6.6,17.2,6.6c14.3,0,25.9-11.6,25.9-25.9S234.6,113.5,220.3,113.5z M204.8,156
			c-0.3-0.3-0.7-0.4-1.1-0.4h-10.6l5.6-6.8c0.4-0.4,0.4-1,0.3-1.6c-0.9-2.5-1.4-5.1-1.4-7.8c0-12.5,10.2-22.7,22.7-22.7
			s22.7,10.2,22.7,22.7s-10.2,22.7-22.7,22.7C214.5,162.2,209,160,204.8,156z"/>
		<path class="st0" d="M220.4,136.5c-2.1,0-3.8,1.7-3.8,3.8s1.7,3.8,3.8,3.8s3.8-1.7,3.8-3.8S222.5,136.5,220.4,136.5z"/>
		<path class="st0" d="M209.5,136.5c-2.1,0-3.8,1.7-3.8,3.8s1.7,3.8,3.8,3.8s3.8-1.7,3.8-3.8S211.6,136.5,209.5,136.5z"/>
		<path class="st0" d="M231.3,136.5c-2.1,0-3.8,1.7-3.8,3.8s1.7,3.8,3.8,3.8s3.8-1.7,3.8-3.8S233.4,136.5,231.3,136.5z"/>
		<path class="st0" d="M59.8,150.7c0.8-2.6,1.3-5.3,1.3-8c0-14.3-11.6-25.9-25.9-25.9s-26,11.6-26,25.9s11.6,25.9,25.9,25.9
			c6.4,0,12.5-2.3,17.2-6.6h13.3c0.6,0,1.2-0.4,1.4-0.9c0.3-0.6,0.2-1.2-0.2-1.7L59.8,150.7z M50.6,159.3c-4.2,4-9.8,6.1-15.5,6.1
			c-12.5,0-22.7-10.2-22.7-22.7S22.6,120,35.1,120s22.7,10.2,22.7,22.7c0,2.7-0.5,5.3-1.4,7.8c-0.2,0.5-0.1,1.1,0.3,1.6l5.6,6.8
			H51.7C51.3,158.9,50.9,159,50.6,159.3z"/>
		<path class="st0" d="M35,139.8c-2.1,0-3.8,1.7-3.8,3.8s1.7,3.8,3.8,3.8s3.8-1.7,3.8-3.8S37.1,139.8,35,139.8z"/>
		<path class="st0" d="M45.9,139.8c-2.1,0-3.8,1.7-3.8,3.8s1.7,3.8,3.8,3.8s3.8-1.7,3.8-3.8S48,139.8,45.9,139.8z"/>
		<path class="st0" d="M24.1,139.8c-2.1,0-3.8,1.7-3.8,3.8s1.7,3.8,3.8,3.8s3.8-1.7,3.8-3.8S26.2,139.8,24.1,139.8z"/>
		<path class="st0" d="M106,155H90c-0.9,0-1.6,0.7-1.6,1.6c0,5.1,4,8.8,9.6,8.8s9.6-3.7,9.6-8.8C107.6,155.7,106.9,155,106,155z
			 M98,162.3c-2.6,0-5.4-1.3-6.2-4.1h12.4C103.4,161,100.6,162.3,98,162.3z"/>
		<path class="st0" d="M89.8,142.9c0.4,0.8,1.3,1.1,2.1,0.7s1.1-1.3,0.7-2.1c-0.6-1.1-2.3-3.1-5.4-3.1s-4.7,2-5.2,3.1
			c-0.3,0.8,0,1.7,0.8,2.1c0.2,0.1,0.4,0.1,0.6,0.1c0.6,0,1.2-0.4,1.5-1c0,0,0.2-0.3,0.5-0.6c0.4-0.3,0.9-0.6,1.8-0.6
			s1.5,0.3,1.9,0.6C89.6,142.5,89.8,142.9,89.8,142.9z"/>
		<path class="st0" d="M108,138.5c-3.1,0-4.7,2-5.2,3.1c-0.3,0.8,0,1.7,0.8,2.1s1.7,0,2.1-0.8c0-0.1,0.2-0.4,0.5-0.6
			c0.4-0.3,0.9-0.6,1.8-0.6s1.5,0.3,1.9,0.6s0.6,0.6,0.7,0.7c0.3,0.6,0.8,0.9,1.4,0.9c0.2,0,0.5-0.1,0.7-0.2
			c0.8-0.4,1.1-1.3,0.7-2.1C112.8,140.4,111,138.5,108,138.5z"/>
		<rect x="149.8" y="189.3" class="st0" width="42.5" height="3.1"/>
		<rect x="149.8" y="199" class="st0" width="24.6" height="3.1"/>
	</g>
</g>
</svg>
