<?xml version="1.0" encoding="utf-8"?>
<!-- Generator: Adobe Illustrator 20.1.0, SVG Export Plug-In . SVG Version: 6.00 Build 0)  -->
<svg version="1.1" id="Layer_1" xmlns="http://www.w3.org/2000/svg" xmlns:xlink="http://www.w3.org/1999/xlink" x="0px" y="0px"
	 viewBox="0 0 256.4 256.4" style="enable-background:new 0 0 256.4 256.4;" xml:space="preserve">
<style type="text/css">
	.st0{fill:#FFFFFF;}
</style>
<g>
	<g>
		<path class="st0" d="M181.5,98.6H75.8c-4.1,0-7.4,3.3-7.4,7.4v64.5c0,4.1,3.3,7.4,7.4,7.4h15v-3.2h-6.6v-72.9h86.5v72.9h-11.9v3.2
			h22.7c4.1,0,7.4-3.3,7.4-7.4V106C188.9,101.9,185.6,98.6,181.5,98.6z M81,174.6h-5.2c-2.3,0-4.2-1.9-4.2-4.2V106
			c0-2.3,1.9-4.2,4.2-4.2H81V174.6z M185.8,170.4c0,2.3-1.9,4.2-4.2,4.2h-7.6v-72.9h7.6c2.3,0,4.2,1.9,4.2,4.2V170.4z"/>
		
			<ellipse transform="matrix(0.9732 -0.2298 0.2298 0.9732 -27.0608 44.996)" class="st0" cx="179.6" cy="138.7" rx="3.8" ry="3.8"/>
		<rect x="179.4" y="78.6" class="st0" width="3.2" height="11.1"/>
		
			<rect x="193.1" y="89.8" transform="matrix(0.7071 -0.7071 0.7071 0.7071 -6.4254 167.2007)" class="st0" width="11.1" height="3.2"/>
		<rect x="200.3" y="107.3" class="st0" width="10.2" height="3.2"/>
		<path class="st0" d="M147.4,165.9c-1.3,0.4-2.5,2.1-4.5,5.2c-0.8,1.2-1.6,2.5-2.4,3.6c-0.6,0.9-1.3,1.6-1.8,2
			c-0.5,0.4-1.2,0.5-1.5,0.4c-0.6-0.5-0.9-1.3-0.9-2.2v-0.2v-24.5c0-3.4-2.8-6.2-6.2-6.2s-6.2,2.8-6.2,6.2v4.7
			c-0.5-0.1-0.9-0.1-1.4-0.1c-2.9,0-5.6,1.5-7.1,4c-3.4-0.6-7.1,1.1-9,3.6c-0.3-0.1-0.6-0.1-1.1-0.1c-4.5,0-8.3,3.9-8.3,8.5v0.1
			c0,0.4,0,1.8-0.1,3.8c0,1,0,2,0,3.2c0.1,4.8,0.3,10.7,1.2,13.7c1.2,3.8,4.9,6.9,7.1,8.4c0.2,0.2,0.4,0.4,0.4,0.8l0,6.7l3.2,0
			l0-6.7c0-1.4-0.7-2.6-1.8-3.4c-1.5-1-4.9-3.7-5.8-6.7c-0.8-2.6-1-8.2-1.1-12.7c0-1.1,0-2.2,0-3.2c0-1.9,0-3.3,0.1-3.7v-0.1l0-0.1
			c0-2.8,2.3-5.2,5.1-5.3v8.8h3.2v-8.9l0.1-0.4c0.7-1.7,3.1-3.1,5.4-3.1c0.3,0,0.5,0,0.8,0.1v12.4h3.2v-13.5
			c0.9-1.7,2.6-2.8,4.5-2.8c0.4,0,0.9,0.1,1.4,0.2V174h3.2v-23.9c0-1.7,1.4-3,3-3c1.7,0,3,1.4,3,3v24.5v0.2c0,1.1,0.3,2.1,0.7,3
			c0.4,0.7,0.8,1.2,1.4,1.7c1.4,1.2,3.9,0.8,5.4-0.4c0.5-0.4,1-0.8,1.4-1.4c0.8-0.9,1.6-2,2.4-3.2c0.4-0.6,0.8-1.2,1.2-1.8
			c0.9-1.4,2.2-3.5,2.8-3.9c0.9-0.3,1.4-0.2,1.6,0c0.6,0.7,0.2,3.4-0.7,5.7c-0.1,0.2-0.1,0.4-0.2,0.5c-0.4,0.9-0.8,1.8-1.1,2.7
			c-0.3,0.8-0.6,1.5-0.8,2.3c-1.5,4.2-2.8,7.8-7.4,12.5c-2.7,2.7-6.2,3.9-8.1,4.4c-1.9,0.5-3.2,2.2-3.2,4.1v6.4h3.2v-6.4
			c0-0.5,0.3-0.9,0.8-1c2.7-0.7,6.6-2.2,9.6-5.2c5.1-5.1,6.6-9.3,8.2-13.7c0.4-1.1,0.8-2.2,1.2-3.3c0.2-0.4,0.4-0.9,0.6-1.4
			c0-0.1,0.4-0.8,0.7-1.8c0.7-2.2,1.5-5.9-0.3-7.9C151.7,165.9,150.2,165.1,147.4,165.9z"/>
		<rect x="98.7" y="118.5" class="st0" width="53.5" height="3.2"/>
		<rect x="98.7" y="132.1" class="st0" width="31.1" height="3.2"/>
		<rect x="74.8" y="133.9" class="st0" width="3.2" height="8.5"/>
	</g>
</g>
</svg>
