<?xml version="1.0" encoding="utf-8"?>
<!-- Generator: Adobe Illustrator 20.1.0, SVG Export Plug-In . SVG Version: 6.00 Build 0)  -->
<svg version="1.1" id="Layer_1" xmlns="http://www.w3.org/2000/svg" xmlns:xlink="http://www.w3.org/1999/xlink" x="0px" y="0px"
	 viewBox="0 0 256.4 256.4" style="enable-background:new 0 0 256.4 256.4;" xml:space="preserve">
<style type="text/css">
	.st0{fill:#FFFFFF;}
</style>
<g>
	<path class="st0" d="M85.2,187.3c0,0,0.1,0,0.1,0c0.8,0,1.4-0.6,1.5-1.4c0,0,0.1-0.6,0.2-1.6c0.5-3.3,2.2-10.8,6.9-14.2
		c2.9-2.1,7.6-3.6,11.4-4.7c-0.1,0.1-0.1,0.3-0.1,0.4c0,0.4,0.1,0.8,0.4,1.1l0.3,0.3l11.3,12.3c0.3,0.3,0.7,0.5,1.1,0.5
		c0.3,0,0.7-0.1,0.9-0.3v14.4c0,0.4,0.2,0.8,0.4,1l3.4,3.6c0.3,0.3,0.7,0.5,1.1,0.5c0,0,0,0,0,0c0.4,0,0.8-0.2,1.1-0.5l3.2-3.6
		c0.2-0.3,0.4-0.6,0.4-1v-14.5l0.1,0.1c0.3,0.3,0.6,0.4,1,0.4c0.4,0,0.8-0.2,1.1-0.5l11.6-12.6c0.1-0.1,0.1-0.2,0.2-0.3
		c0.1-0.2,0.2-0.5,0.2-0.8c0-0.1,0-0.2,0-0.3c4.4,0.9,11,2.7,14.8,5.3c5.5,3.8,6.5,10.9,6.6,13.7c0,0.7,0,1.2,0,1.2
		c0,0.8,0.6,1.5,1.4,1.5c0,0,0,0,0.1,0c0.8,0,1.4-0.6,1.5-1.4c0-0.5,0.4-11.8-7.9-17.5c-6-4.1-17.9-6.2-20.2-6.6l-1.6-1.5
		c-0.5-0.5-1.3-0.5-1.8-0.1v-3.5c2.4-1.6,4.5-3.7,6.3-6.4c3.6-5.4,5.6-11.7,5.8-18.4c0.1-0.1,0.2-0.2,0.3-0.4
		c0.5-1,5.2-10.1,5.8-13.7c0-0.1,0-0.2,0-0.3c0-0.3-1.7-31.1-30-31.1c-25.5,0-30,29-30.1,29.2c0,0.1,0,0.3,0,0.4
		c0.5,4,1.3,14.1,1.3,14.2c0,0.3,0.2,0.6,0.4,0.9l4.1,4.6c0.2,0.2,0.4,0.4,0.7,0.4c0.8,5.5,2.8,10.6,5.8,15.1
		c1.6,2.3,3.4,4.1,5.6,5.5v3.3c-0.4-0.1-0.9,0-1.3,0.4l-1.1,1c-3.3,0.7-12.3,2.8-17.3,6.3c-7.3,5.2-8.3,17.5-8.4,18
		C83.8,186.5,84.4,187.3,85.2,187.3z M139.5,166l-9.6,10.4l-2.7-2.5l9.6-10.4L139.5,166z M114.9,158.3c2.7,1.2,5.8,1.8,9.2,1.8
		c3.2,0,6.2-0.6,8.9-1.8v5.1l-8.8,9.5l-9.3-10.1C114.9,162.8,114.9,158.3,114.9,158.3z M118.4,176.4l-9.6-10.4l2-1.9l0.6-0.6
		l0.3,0.3l9.3,10.1L118.4,176.4z M125.9,193.5l-1.8,2l-1.9-2v-11h3.7V193.5z M125.9,177.3v2.2h-3.7v-2.2l0,0c0-0.1,0-0.2,0-0.3
		l1.9-1.8l1.8,1.7C126,177,125.9,177.1,125.9,177.3L125.9,177.3z M100.3,121.6C100.3,121.6,100.3,121.6,100.3,121.6
		c0,0.1-0.1,0.1-0.1,0.2c0,0,0,0.1,0,0.1s0,0.1,0,0.1c0,0.1,0,0.1,0,0.2c0,0,0,0,0,0l-0.1,8.4c0,0.4,0,0.7,0,1.1l-1.9-2.1
		c-0.2-2.1-0.8-9.9-1.2-13.6c0.2-1.2,1.4-7.3,4.9-13.3c5.1-8.8,12.6-13.2,22.2-13.2c10.6,0,18.4,4.7,23.1,13.9
		c3.3,6.5,3.9,13.1,3.9,14.2c-0.3,1.7-1.7,4.9-3.1,7.8v-3.6c0,0,0,0,0,0s0,0,0,0c0,0,0-0.1,0-0.1c0-0.1,0-0.1,0-0.2c0,0,0-0.1,0-0.1
		c0-0.1,0-0.1-0.1-0.2c0,0,0-0.1-0.1-0.1c0-0.1-0.1-0.1-0.1-0.2c0,0-0.1-0.1-0.1-0.1c0,0-0.1-0.1-0.1-0.1c0,0-0.1-0.1-0.1-0.1
		c0,0-0.1-0.1-0.1-0.1s-0.1-0.1-0.1-0.1c0,0-0.1,0-0.1-0.1c-0.1,0-0.1,0-0.2-0.1c0,0-0.1,0-0.1,0c-0.1,0-0.1,0-0.2,0
		c0,0-0.1,0-0.1,0c0,0,0,0,0,0s0,0,0,0c-0.3,0-27.6,0.9-33.8-15.6c-0.2-0.7-0.8-1.1-1.5-1.1C110.2,103.5,108.8,103.4,100.3,121.6z
		 M108.8,149.5c-3.8-5.4-5.7-12-5.7-18.9l0.1-8c0.1-0.1,0.1-0.2,0.2-0.4c2.7-5.7,5.8-11.8,7.5-14.5c3.4,6.7,10.3,11.5,20.3,13.9
		c0.5,0.1,1,0.2,1.5,0.3c5.4,1.1,10.2,1.3,12.5,1.3v7.2c0,6.6-1.9,12.9-5.4,18.2c-1.4,2.1-2.9,3.7-4.7,5c-0.7,0.5-1.4,0.9-2.1,1.3
		c-2.6,1.4-5.6,2.1-8.9,2.1c-3.5,0-6.5-0.7-9.2-2.1c-0.5-0.3-1-0.6-1.5-0.9c-0.4-0.3-0.8-0.6-1.3-0.9
		C110.9,152.1,109.8,150.9,108.8,149.5z"/>
	<path class="st0" d="M193.1,96.8c-18,0-32.6,14.6-32.6,32.6c0,3.6,0.6,7,1.7,10.4l-9.3,11.4c-0.4,0.4-0.4,1.1-0.2,1.6
		s0.8,0.9,1.3,0.9h17.2c6,5.4,13.7,8.4,21.8,8.4c18,0,32.6-14.6,32.6-32.6C225.8,111.4,211.1,96.8,193.1,96.8z M193.1,159
		c-7.5,0-14.7-2.8-20.2-8c-0.3-0.3-0.6-0.4-1-0.4h-14.7l7.8-9.6c0.3-0.4,0.4-1,0.2-1.4c-1.2-3.2-1.8-6.7-1.8-10.2
		c0-16.3,13.3-29.6,29.6-29.6s29.6,13.3,29.6,29.6S209.5,159,193.1,159z"/>
	<path class="st0" d="M192.9,126.2c-2.7,0-4.9,2.2-4.9,4.9c0,2.7,2.2,4.9,4.9,4.9c2.7,0,4.9-2.2,4.9-4.9S195.6,126.2,192.9,126.2z
		 M192.9,133.1c-1.1,0-2-0.9-2-2s0.9-2,2-2s2,0.9,2,2C194.8,132.2,194,133.1,192.9,133.1z"/>
	<path class="st0" d="M179.5,126.2c-2.7,0-4.9,2.2-4.9,4.9c0,2.7,2.2,4.9,4.9,4.9c2.7,0,4.9-2.2,4.9-4.9S182.3,126.2,179.5,126.2z
		 M179.5,133.1c-1.1,0-2-0.9-2-2s0.9-2,2-2s2,0.9,2,2C181.5,132.2,180.6,133.1,179.5,133.1z"/>
	<path class="st0" d="M205.7,126.2c-2.7,0-4.9,2.2-4.9,4.9c0,2.7,2.2,4.9,4.9,4.9s4.9-2.2,4.9-4.9
		C210.7,128.4,208.4,126.2,205.7,126.2z M205.7,133.1c-1.1,0-2-0.9-2-2s0.9-2,2-2s2,0.9,2,2C207.7,132.2,206.8,133.1,205.7,133.1z"
		/>
	<path class="st0" d="M130.4,130.9c0.2,0.1,0.4,0.1,0.6,0.1c0.6,0,1.1-0.3,1.4-0.9c0,0,0.1-0.3,0.5-0.6c0.3-0.3,0.9-0.6,1.8-0.6
		c0.9,0,1.5,0.3,1.9,0.6c0.4,0.3,0.6,0.6,0.6,0.7c0.4,0.7,1.2,1,2,0.7c0.7-0.4,1-1.3,0.7-2c-0.5-1.1-2.2-2.9-5.1-2.9
		c-2.9,0-4.5,1.9-5,3C129.2,129.7,129.6,130.6,130.4,130.9z"/>
	<path class="st0" d="M115.1,129.5c0.4,0.3,0.6,0.6,0.6,0.7c0.4,0.7,1.2,1,2,0.7c0.7-0.4,1-1.3,0.7-2c-0.5-1.1-2.2-2.9-5.1-2.9
		c-2.9,0-4.5,1.9-5,3c-0.3,0.8,0,1.6,0.8,1.9c0.2,0.1,0.4,0.1,0.6,0.1c0.6,0,1.1-0.3,1.4-0.9c0,0,0.1-0.3,0.5-0.6
		c0.3-0.3,0.9-0.6,1.8-0.6C114.1,128.9,114.7,129.2,115.1,129.5z"/>
	<path class="st0" d="M131.9,140.3h-15.4c-0.8,0-1.5,0.7-1.5,1.5c0,4.9,3.9,8.4,9.2,8.4c5.3,0,9.2-3.6,9.2-8.4
		C133.4,141,132.7,140.3,131.9,140.3z M124.2,147.3c-3.1,0-5.4-1.6-6-4h12C129.5,145.7,127.2,147.3,124.2,147.3z"/>
	<path class="st0" d="M141.3,185.9c-0.8,0-1.5,0.7-1.5,1.5s0.7,1.5,1.5,1.5h9.9c0.8,0,1.5-0.7,1.5-1.5s-0.7-1.5-1.5-1.5H141.3z"/>
	<rect x="81.2" y="203.9" class="st0" width="89.7" height="3"/>
	<rect x="99.4" y="212.9" class="st0" width="53.4" height="3"/>
</g>
</svg>
