<?xml version="1.0" encoding="utf-8"?>
<!-- Generator: Adobe Illustrator 20.1.0, SVG Export Plug-In . SVG Version: 6.00 Build 0)  -->
<svg version="1.1" id="Layer_1" xmlns="http://www.w3.org/2000/svg" xmlns:xlink="http://www.w3.org/1999/xlink" x="0px" y="0px"
	 viewBox="0 0 256.4 256.4" style="enable-background:new 0 0 256.4 256.4;" xml:space="preserve">
<style type="text/css">
	.st0{fill:#FFFFFF;}
</style>
<g>
	<g>
		<polygon class="st0" points="88.8,124.2 88.8,125.8 88.8,127.4 104.3,127.4 104.3,124.2 		"/>
		<rect x="112.7" y="124.2" class="st0" width="41.8" height="3.2"/>
		<polygon class="st0" points="88.8,136.4 88.8,138 146.8,138 146.8,136.4 146.8,134.8 88.8,134.8 		"/>
		<path class="st0" d="M226.6,134.8c-2.9-3.7-7.3-5.1-9.7-5.6c0.8-6.3-0.9-16.8-12.1-19.9c-9.8-2.7-16.1,4-18.6,8.8
			c-2.3-0.6-6.9-1.3-11.4,1.4V113h1.2c3.2,0,5.8-2.6,5.8-5.8v-0.3c0-3.2-2.6-5.8-5.8-5.8H72.3c-3.2,0-5.8,2.6-5.8,5.8v0.3
			c0,3.2,2.6,5.8,5.8,5.8h1.2v29.1c0,0.9,0.7,1.6,1.6,1.6s1.6-0.7,1.6-1.6v0v-28.8h94.8v8.9c-3.7,4.3-3.3,10.3-2.9,12.8
			c-1.5,1-4.2,3.3-5.8,6.7c-0.3,0.7-0.6,1.5-0.8,2.3c-0.5,1.7-0.5,3.5-0.2,5.3c-4.4,1.8-7.6,6.2-7.6,11.2c0,4.1,2.1,7.8,5.2,10
			c-6.4,2.1-11.5,7-13.8,13.3c-2.3-6.3-7.4-11.2-13.8-13.3c3.2-2.2,5.2-5.9,5.2-10c0-6.7-5.4-12.1-12.1-12.1s-12.1,5.4-12.1,12.1
			c0,4.1,2.1,7.8,5.2,10c-6.3,2.1-11.3,6.9-13.7,13.1c-2.4-6.1-7.4-11-13.7-13.1c3.2-2.2,5.2-5.9,5.2-10c0-6.7-5.4-12.1-12.1-12.1
			s-12.1,5.4-12.1,12.1c0,4.1,2.1,7.8,5.2,10c-8.8,2.9-15.2,11.2-15.2,20.9c0,0.9,0.7,1.6,1.6,1.6s1.6-0.7,1.6-1.6l0,0
			c0-10.1,8-18.4,18-18.8c0.3,0,0.6,0.1,0.9,0.1s0.6,0,0.9-0.1c10,0.5,18,8.7,18,18.8l0,0c0,0.9,0.7,1.6,1.6,1.6c0,0,0.1,0,0.1,0
			s0.1,0,0.1,0c0.9,0,1.6-0.7,1.6-1.6l0,0c0-10.1,8-18.4,18-18.8c0.3,0,0.6,0.1,0.9,0.1s0.6,0,0.9-0.1c10,0.5,18,8.7,18,18.8l0,0
			c0,0.9,0.7,1.6,1.6,1.6c0.1,0,0.2,0,0.2,0c0.1,0,0.1,0,0.2,0c0.9,0,1.6-0.7,1.6-1.6l0,0c0-10.1,8-18.4,18-18.8
			c0.3,0,0.6,0.1,0.9,0.1s0.6,0,0.9-0.1c10,0.5,18,8.7,18,18.8l0,0c0,0.9,0.7,1.6,1.6,1.6s1.6-0.7,1.6-1.6c0-9.8-6.4-18.1-15.2-20.9
			c2.6-1.8,4.4-4.6,5-7.8c2.8-0.1,5.4-0.8,7.5-1.6c1.4,1.8,4.6,5.1,9.8,5.7v24.7c0,0.9,0.7,1.6,1.6,1.6s1.6-0.7,1.6-1.6v-24.7
			c5.6-0.7,9-5.2,10.4-7.4c2.7,0.6,9.1,1.5,14.1-1.7c3.4-2.1,5.5-5.7,6.2-10.5C230.1,142.1,229.2,137.9,226.6,134.8z M226.2,146.7
			c-0.6,3.9-2.2,6.6-4.7,8.3c-5.1,3.3-12.7,1.1-12.7,1c-0.8-0.2-1.6,0.1-1.9,0.8c0,0.1-2.9,5.8-8.1,6.7v-13.8
			c0.1-0.1,0.2-0.1,0.2-0.2l10-8.9c0.7-0.6,0.7-1.6,0.1-2.3c-0.6-0.7-1.6-0.7-2.3-0.1l-8.1,7.2v-17.5c0-0.9-0.7-1.6-1.6-1.6
			s-1.6,0.7-1.6,1.6V145l-10.2-9.6c-0.6-0.6-1.7-0.6-2.3,0.1c-0.6,0.6-0.6,1.7,0.1,2.3l12.4,11.7v14.2c-5.1-0.8-7.7-5.1-7.8-5.3
			c-0.3-0.5-0.8-0.8-1.4-0.8c-0.2,0-0.5,0.1-0.7,0.2c-0.2,0.1-3.3,1.6-7.1,1.8c-0.5-6.2-5.7-11.2-12.1-11.2c-0.5,0-1,0-1.4,0.1
			c-0.2-1.2-0.1-2.4,0.2-3.6c0.3-1.2,0.8-2.2,1.4-3.1c1.9-2.9,4.7-4.5,4.7-4.5c0.1-0.1,0.2-0.2,0.4-0.3c0.4-0.4,0.5-0.9,0.4-1.5
			c0-0.1-1.3-5.7,1.2-9.9c0.4-0.7,0.9-1.4,1.6-2c0.2-0.1,0.3-0.3,0.5-0.4c5.2-4,10.9-1.6,11.1-1.5c0.4,0.2,0.8,0.2,1.2,0
			c0.4-0.2,0.7-0.5,0.9-0.9c0.2-0.5,4.7-11.3,15.5-8.3c12.4,3.4,9.6,17.2,9.5,17.8c-0.1,0.4,0,0.9,0.3,1.3s0.7,0.6,1.1,0.6
			c0.1,0,5.9,0.6,9.2,4.7C226.1,139.2,226.8,142.6,226.2,146.7z M175,162.4c-0.9,3.7-4,6.5-7.8,6.9c-0.3,0-0.6,0.1-0.9,0.1
			s-0.6,0-0.9-0.1c-4.5-0.4-8.1-4.3-8.1-8.9c0-3.6,2.2-6.7,5.3-8.1c0.5-0.2,1-0.4,1.5-0.5c0.5-0.1,1.1-0.2,1.6-0.2
			c0.2,0,0.3,0,0.5,0c4.5,0,8.3,3.4,8.9,7.8c0.1,0.4,0.1,0.8,0.1,1.1c0,0.2,0,0.3,0,0.5C175.2,161.4,175.1,161.9,175,162.4z
			 M69.8,107.2v-0.3c0-1.4,1.1-2.6,2.6-2.6H176c1.4,0,2.6,1.1,2.6,2.6v0.3c0,1.4-1.1,2.6-2.6,2.6H72.3
			C70.9,109.8,69.8,108.7,69.8,107.2z M124.9,151.4c4.9,0,8.9,4,8.9,8.9c0,4.6-3.5,8.4-8.1,8.9c-0.3,0-0.6,0.1-0.9,0.1
			s-0.6,0-0.9-0.1c-4.5-0.4-8.1-4.3-8.1-8.9C116,155.5,120,151.4,124.9,151.4z M83.7,151.4c4.9,0,8.9,4,8.9,8.9
			c0,4.6-3.5,8.4-8.1,8.9c-0.3,0-0.6,0.1-0.9,0.1s-0.6,0-0.9-0.1c-4.5-0.4-8.1-4.3-8.1-8.9C74.8,155.5,78.8,151.4,83.7,151.4z"/>
		<path class="st0" d="M175.9,87.7h9.7c0.9,0,1.6-0.7,1.6-1.6s-0.7-1.6-1.6-1.6h-9.7c-0.9,0-1.6,0.7-1.6,1.6S175,87.7,175.9,87.7z"
			/>
		<path class="st0" d="M60.3,123.9h-9.9c-0.9,0-1.6,0.7-1.6,1.6s0.7,1.6,1.6,1.6h9.9c0.9,0,1.6-0.7,1.6-1.6S61.2,123.9,60.3,123.9z"
			/>
		<path class="st0" d="M193.1,96.9h17.4c0.9,0,1.6-0.7,1.6-1.6s-0.7-1.6-1.6-1.6h-17.4c-0.9,0-1.6,0.7-1.6,1.6
			C191.5,96.2,192.2,96.9,193.1,96.9z"/>
		<path class="st0" d="M56.5,138.1H39c-0.9,0-1.6,0.7-1.6,1.6s0.7,1.6,1.6,1.6h17.5c0.9,0,1.6-0.7,1.6-1.6S57.4,138.1,56.5,138.1z"
			/>
	</g>
</g>
</svg>
