<?xml version="1.0" encoding="utf-8"?>
<!-- Generator: Adobe Illustrator 20.1.0, SVG Export Plug-In . SVG Version: 6.00 Build 0)  -->
<svg version="1.1" id="Layer_1" xmlns="http://www.w3.org/2000/svg" xmlns:xlink="http://www.w3.org/1999/xlink" x="0px" y="0px"
	 viewBox="0 0 256.4 256.4" style="enable-background:new 0 0 256.4 256.4;" xml:space="preserve">
<style type="text/css">
	.st0{fill:#FFFFFF;}
</style>
<g>
	<g>
		<path class="st0" d="M191.3,164.2c1.9,0,3.9-0.1,5.8-0.4c21.8-3.2,36.9-23.5,33.8-45.2c-3.2-21.8-23.5-36.9-45.2-33.8
			c-10.6,1.5-19.9,7.1-26.2,15.6c-2.5,3.4-4.5,7.1-5.8,11h-92c-4.4,0-7.9,3.6-7.9,7.9v68.1H39.5v1.6c0,7.6,6,13.7,13.3,13.7H189
			c7.3,0,13.3-6.1,13.3-13.7v-1.6h-15.9v-23.5C188.1,164.1,189.7,164.2,191.3,164.2z M42.8,190.7h10.8h8v0h116.3v0h8.5H199
			c-0.7,5-4.9,8.9-10,8.9H52.8C47.8,199.6,43.6,195.7,42.8,190.7z M156.9,111.5c1.2-3.2,2.9-6.3,5-9.1c5.9-7.9,14.4-13,24.1-14.4
			c20-2.9,38.7,11,41.6,31c1.4,9.7-1,19.4-6.9,27.2s-14.4,13-24.1,14.4c-3.4,0.5-6.8,0.5-10.1,0.1c-1.1-0.1-2.1-0.3-3.2-0.6
			c-1.8-0.4-3.6-0.9-5.3-1.6c-0.5-0.2-1.1-0.4-1.6-0.7c-0.5-0.2-1.1-0.5-1.6-0.8c-1.5-0.8-3-1.6-4.4-2.6c-0.3-0.2-0.6-0.3-0.9-0.3
			c-0.1,0-0.1,0-0.2,0l-18.3,2.7l8.1-13.5c0.3-0.5,0.3-1.1,0-1.6c-2-3.8-3.4-7.9-4-12.1c-0.3-2.1-0.4-4.2-0.4-6.3
			c0-0.5,0-1.1,0.1-1.6c0-0.5,0.1-1.1,0.1-1.6c0.2-1.8,0.6-3.6,1-5.4C156.2,113.6,156.6,112.5,156.9,111.5z M97,187.5
			c0.4-1.4,1.4-3.9,3.9-5.6c2-1.4,6-2.5,8.9-3.1c1.1,1.3,4.3,4.6,8.8,4.6c4.8,0,7.7-2.7,8.6-4.5c3.7,0.5,9.9,1.7,12.4,3.4
			c2.8,1.9,3.5,4,3.7,5.2c0,0,0,0,0,0L97,187.5C97,187.5,97,187.5,97,187.5z M134.3,151c-3.6-0.2-18.4-1.5-21.6-10.1
			c-0.2-0.7-0.9-1.1-1.6-1.1c0,0,0,0,0,0c-1.2,0-1.8,0.1-6.9,15.2c-0.3-0.7-0.6-1.4-0.7-2.1l-0.1-0.9c-0.4-4.3,0.5-8.3,2.5-11.8
			c3-5.2,7.4-7.8,13.1-7.8c6.3,0,10.8,2.7,13.6,8.1c1.9,3.7,2.3,7.5,2.4,8.4C134.9,149.5,134.7,150.2,134.3,151z M111.2,144.9
			c4.6,6.5,14.6,8.5,20.1,9.1v3c0,3.9-1.1,7.6-3.2,10.8c-2.2,3.2-5.2,4.9-9.1,4.9c-3.9,0-6.8-1.4-8.9-4.4c-2.2-3.1-3.3-6.9-3.4-10.9
			C108.3,152.6,110.1,147.7,111.2,144.9z M119,175.8c1.7,0,3.3-0.3,4.8-0.8v2.9c-0.7,0.8-2.4,2.2-5.3,2.2c-1.8,0-3.3-0.9-4.5-1.7
			h0.1v-3.3C115.6,175.6,117.2,175.8,119,175.8z M174.7,187.5L174.7,187.5l-28.3,0c0,0,0,0,0,0c-0.2-1.6-1.1-5-5.1-7.8
			c-3.4-2.3-11-3.6-14.2-4v-2.2c1.4-1,2.7-2.3,3.8-3.9c2.3-3.4,3.5-7.4,3.7-11.6l0.1,0.1c0.3-0.6,3.2-6.3,3.6-8.6l0-0.2l0-0.2
			c0-0.2-1.1-19.7-19.2-19.7c-6.8,0-12.2,3.2-15.8,9.4c-2.4,4-3.4,8.7-2.9,13.7l0.1,0.9c0.2,2.6,1.9,5,3.4,6.8
			c0.4,3.7,1.7,7.1,3.8,10c0.9,1.4,2.1,2.5,3.3,3.4v1.8c-2.4,0.4-8.7,1.8-11.8,4c-3.8,2.7-5,6.7-5.3,8.2c0,0,0,0,0,0H64.9v0v-64.2
			h86.6c-0.1,2.3,0.1,4.5,0.4,6.8c0.6,4.4,1.9,8.5,3.9,12.4l-9.4,15.6c-0.3,0.5-0.3,1.2,0,1.7c0.3,0.5,0.9,0.8,1.6,0.7l21.1-3.1
			c1.8,1.2,3.7,2.3,5.7,3.2L174.7,187.5L174.7,187.5z M56.9,119.4c0-2.6,2.1-4.7,4.7-4.7h91c-0.4,1.8-0.8,3.6-0.9,5.4h-90v67.4h-4.8
			L56.9,119.4L56.9,119.4z M183.3,187.5h-5.3v-25.5c1.7,0.6,3.5,1.1,5.3,1.5V187.5z"/>
		<path class="st0" d="M191,131.2c3.2,0,5.9-2.6,5.9-5.9c0-3.2-2.6-5.9-5.9-5.9c-1.9,0-3.5,0.9-4.6,2.2c-0.8,1-1.3,2.3-1.3,3.6
			s0.5,2.6,1.3,3.6C187.5,130.3,189.2,131.2,191,131.2z M191,122.7c1.5,0,2.7,1.2,2.7,2.7c0,1.5-1.2,2.7-2.7,2.7
			c-1.5,0-2.7-1.2-2.7-2.7C188.4,123.9,189.6,122.7,191,122.7z"/>
		<path class="st0" d="M174.6,131.2c0,0,0.1,0,0.1,0c0.6,0,1.1-0.1,1.6-0.2c0.6-0.2,1.1-0.4,1.6-0.8c1.5-1.1,2.6-2.8,2.6-4.8
			s-1-3.8-2.6-4.8c-0.2-0.2-0.5-0.3-0.8-0.4c-0.8-0.4-1.6-0.6-2.6-0.6s-1.8,0.2-2.6,0.6c-0.8,0.4-1.5,0.9-2,1.6
			c-0.4,0.5-0.7,1-0.9,1.6c-0.2,0.6-0.4,1.3-0.4,2.1C168.8,128.6,171.4,131.2,174.6,131.2z M174.6,122.7c0.6,0,1.2,0.2,1.7,0.6
			c0.6,0.5,0.9,1.2,0.9,2s-0.4,1.5-0.9,2c-0.4,0.4-1,0.6-1.6,0.6c0,0-0.1,0-0.1,0c-1.5,0-2.7-1.2-2.7-2.7c0-0.8,0.4-1.6,1-2.1
			C173.4,122.9,174,122.7,174.6,122.7z"/>
		<path class="st0" d="M206.8,131.2c3.2,0,5.9-2.6,5.9-5.9c0-3.2-2.6-5.9-5.9-5.9s-5.9,2.6-5.9,5.9
			C201,128.6,203.6,131.2,206.8,131.2z M206.8,122.7c1.5,0,2.7,1.2,2.7,2.7c0,1.5-1.2,2.7-2.7,2.7c-1.5,0-2.7-1.2-2.7-2.7
			C204.2,123.9,205.4,122.7,206.8,122.7z"/>
	</g>
</g>
</svg>
