<?xml version="1.0" encoding="utf-8"?>
<!-- Generator: Adobe Illustrator 20.1.0, SVG Export Plug-In . SVG Version: 6.00 Build 0)  -->
<svg version="1.1" id="Layer_1" xmlns="http://www.w3.org/2000/svg" xmlns:xlink="http://www.w3.org/1999/xlink" x="0px" y="0px"
	 viewBox="0 0 256.4 256.4" style="enable-background:new 0 0 256.4 256.4;" xml:space="preserve">
<style type="text/css">
	.st0{fill:#FFFFFF;}
</style>
<g>
	<path class="st0" d="M188.6,131.8h-23.5v-16.6c0-4.4-3.6-7.9-7.9-7.9h-16.5v-6.1c0-6.4-5.2-11.6-11.6-11.6h-20.7
		c-6.4,0-11.6,5.2-11.6,11.6v6.1H85.3h-4.9h-9.2c-4.4,0-7.9,3.6-7.9,7.9v54.4c0,4.4,3.5,7.9,7.9,7.9h9.2h4.9H136v9.9
		c0,6.6,5,12,11.4,12.7v0.1c0.2,0,0.5,0,0.7,0s0.5,0,0.7,0H187c7.1,0,12.8-5.8,12.8-12.8v-6.1h-11.2V131.8L188.6,131.8z
		 M100.1,101.2c0-4.6,3.8-8.4,8.4-8.4h20.7c4.6,0,8.4,3.8,8.4,8.4v6.1h-4.8V101c0-2.1-1.7-3.8-3.8-3.8h-20.3c-2.1,0-3.8,1.7-3.8,3.8
		v6.3h-4.8C100.1,107.3,100.1,101.2,100.1,101.2z M108.1,107.3V101c0-0.3,0.3-0.6,0.6-0.6H129c0.4,0,0.6,0.3,0.6,0.6v6.3H108.1z
		 M71.2,174.3c-2.6,0-4.7-2.1-4.7-4.7v-54.4c0-2.6,2.1-4.7,4.7-4.7h2.9c-1,1.3-1.6,2.9-1.6,4.7v54.4c0,1.8,0.6,3.4,1.6,4.7H71.2z
		 M136,174.3H85.3h-4.9c-2.6,0-4.7-2.1-4.7-4.7v-24.4c1.3,1,2.9,1.6,4.7,1.6H110v1c0,4.9,3.9,8.8,8.8,8.8s8.8-3.9,8.8-8.8v-1h8.4
		V174.3L136,174.3z M113.2,147.8v-7.2c0-3.1,2.5-5.6,5.6-5.6s5.6,2.5,5.6,5.6v7.2c0,3.1-2.5,5.6-5.6,5.6
		C115.7,153.4,113.2,150.9,113.2,147.8z M136,143.5h-8.4v-3c0-4.9-3.9-8.8-8.8-8.8s-8.8,3.9-8.8,8.8v3H80.4c-2.6,0-4.7-2.1-4.7-4.7
		v-23.6c0-2.6,2.1-4.7,4.7-4.7h4.9h71.9c2.6,0,4.7,2.1,4.7,4.7v16.6H136V143.5z M196.6,184.5v2.9c0,5.3-4.3,9.6-9.6,9.6l0,0h-31.2
		c2.7-2.4,4.4-5.8,4.4-9.6v-2.9H187H196.6z M157,181.3v6.1c0,5.1-3.9,9.2-8.9,9.6c-5-0.4-8.9-4.5-8.9-9.6V135h46.2v46.4L157,181.3
		L157,181.3z"/>
	<rect x="146.9" y="142.8" class="st0" width="30.8" height="3.2"/>
	<rect x="146.9" y="152.4" class="st0" width="30.8" height="3.2"/>
	<polygon class="st0" points="146.9,165.2 159.5,165.2 159.5,163.6 159.5,162 146.9,162 	"/>
	<polygon class="st0" points="146.9,174.8 159.5,174.8 159.5,173.2 159.5,171.6 146.9,171.6 	"/>
	<rect x="150.7" y="89.7" class="st0" width="3.2" height="11.1"/>
	
		<rect x="164.4" y="100.9" transform="matrix(0.7071 -0.7071 0.7071 0.7071 -22.6845 150.1598)" class="st0" width="11.1" height="3.2"/>
	<rect x="171.6" y="118.5" class="st0" width="10.2" height="3.2"/>
	<polygon class="st0" points="169.3,170.3 165.7,166.7 163.4,169 169.3,174.9 179.7,164.4 177.5,162.1 	"/>
	<rect x="98.5" y="184.6" class="st0" width="31.2" height="3.2"/>
	<rect x="111.6" y="193.8" class="st0" width="18.1" height="3.2"/>
</g>
</svg>
