<?xml version="1.0" encoding="utf-8"?>
<!-- Generator: Adobe Illustrator 20.1.0, SVG Export Plug-In . SVG Version: 6.00 Build 0)  -->
<svg version="1.1" id="Layer_1" xmlns="http://www.w3.org/2000/svg" xmlns:xlink="http://www.w3.org/1999/xlink" x="0px" y="0px"
	 viewBox="0 0 256.4 256.4" style="enable-background:new 0 0 256.4 256.4;" xml:space="preserve">
<style type="text/css">
	.st0{fill:#FFFFFF;}
</style>
<g>
	<path class="st0" d="M182.4,99.2h-50.7l10.9-10.9H71.4V136v1.6v47.9h-6.8v3.2h124.5v-82.8C189.1,102.2,186.1,99.2,182.4,99.2z
		 M131.6,102.4v24L118.1,113l10.5-10.5L131.6,102.4L131.6,102.4z M74.6,91.5H135L113.5,113l21.5,21.5H74.6V91.5z M93.2,185.5H74.6
		v-47.8h18.7v47.8H93.2z M120.5,185.5h-13v-23.2h13V185.5z M104.3,159.1v26.4h-7.9v-47.8h35.1v47.9h-7.9v-26.4L104.3,159.1
		L104.3,159.1z M185.9,185.5h-51.1v-47.8h8l-8-8v-27.2h47.7c1.9,0,3.4,1.5,3.4,3.4L185.9,185.5L185.9,185.5z"/>
	<path class="st0" d="M142.6,173.9h35.3v-14.8h-35.3V173.9z M145.8,162.3h28.9v8.4h-28.9V162.3z"/>
	<path class="st0" d="M142.6,153.8h35.3V139h-35.3V153.8z M145.8,142.2h28.9v8.4h-28.9V142.2z"/>
	<path class="st0" d="M142.6,133.7h35.3v-14.8h-35.3V133.7z M145.8,122.1h28.9v8.4h-28.9V122.1z"/>
	<rect x="92.4" y="195.3" class="st0" width="96.6" height="3.2"/>
	<rect x="131.6" y="205.1" class="st0" width="57.5" height="3.2"/>
	<path class="st0" d="M96.5,100.2h1.2c3.6,0,6.6,3,6.6,6.6h3.2c0-5.4-4.4-9.8-9.8-9.8h-1.2c-5.4,0-9.8,4.4-9.8,9.8v1.5h-4.8v3.2h4.8
		v3h-4.8v3.2h4.8v1.5c0,5.4,4.4,9.8,9.8,9.8h1.2c5.4,0,9.8-4.4,9.8-9.8h-3.2c0,3.6-3,6.6-6.6,6.6h-1.2c-3.6,0-6.6-3-6.6-6.6v-1.5
		h9.6v-3.2h-9.6v-3h9.6v-3.2h-9.6v-1.5C89.9,103.2,92.8,100.2,96.5,100.2z"/>
</g>
</svg>
