<?xml version="1.0" encoding="utf-8"?>
<!-- Generator: Adobe Illustrator 20.1.0, SVG Export Plug-In . SVG Version: 6.00 Build 0)  -->
<svg version="1.1" id="Layer_1" xmlns="http://www.w3.org/2000/svg" xmlns:xlink="http://www.w3.org/1999/xlink" x="0px" y="0px"
	 viewBox="0 0 256.4 256.4" style="enable-background:new 0 0 256.4 256.4;" xml:space="preserve">
<style type="text/css">
	.st0{fill:#FFFFFF;}
</style>
<g>
	
		<rect x="130.2" y="84.8" transform="matrix(1 -5.708839e-03 5.708839e-03 1 -0.5214 0.7539)" class="st0" width="3.2" height="13.8"/>
	
		<rect x="165" y="106.6" transform="matrix(0.7044 -0.7098 0.7098 0.7044 -26.0222 154.0129)" class="st0" width="13.8" height="3.2"/>
	
		<rect x="147.3" y="94.7" transform="matrix(0.3915 -0.9202 0.9202 0.3915 5.2027 200.5075)" class="st0" width="13.8" height="3.2"/>
	<path class="st0" d="M170.1,162.1c1.5-4.3,2.3-8.9,2.3-13.7c0-23.4-19-42.4-42.4-42.4h-9.2c-23.4,0-42.4,19-42.4,42.4
		s19,42.4,42.4,42.4h9.2c5.7,0,11.1-1.1,16.1-3.2l9.4,9.4l33-33l-10.2-10.2L170.1,162.1z M111.2,110.4c-6.8,3.4-12.6,8.5-16.7,14.8
		h-5.3C94.5,118,102.2,112.7,111.2,110.4z M87.1,128.4h5.5c-1.3,2.4-2.4,5-3.2,7.6h-5.8C84.5,133.4,85.6,130.8,87.1,128.4z
		 M81.6,150.1h6c0.1,2.6,0.4,5.2,1,7.6h-5.9C82,155.2,81.7,152.7,81.6,150.1z M87.6,146.9h-6c0.1-2.6,0.5-5.2,1.1-7.6h5.9
		C88,141.7,87.7,144.2,87.6,146.9z M89.4,160.9c0.8,2.7,1.9,5.2,3.2,7.6h-5.5c-1.4-2.4-2.6-4.9-3.5-7.6H89.4z M89.2,171.7h5.3
		c4.1,6.3,9.9,11.4,16.7,14.8C102.2,184.2,94.5,178.9,89.2,171.7z M129.9,187.7c-21.6,0-39.2-17.6-39.2-39.2s17.6-39.2,39.2-39.2
		s39.2,17.6,39.2,39.2c0,7.4-2.1,14.3-5.6,20.3l-8,8l-6.5-6.5l-10.2,10.2l4.8,4.8C139.3,186.8,134.7,187.7,129.9,187.7z
		 M155.5,192.6l-12.2-12.2l5.7-5.7l6.5,6.5l22.8-22.8l5.7,5.7L155.5,192.6z"/>
	<path class="st0" d="M144.9,156.6h-3.2c0,5.1-4.1,9.2-9.2,9.2h-1.6c-5.1,0-9.2-4.1-9.2-9.2v-2.5h13.2v-3.2h-13.2V146h13.2v-3.2
		h-13.2v-2.5c0-5.1,4.1-9.2,9.2-9.2h1.6c5.1,0,9.2,4.1,9.2,9.2h3.2c0-6.9-5.6-12.4-12.4-12.4h-1.6c-6.8,0-12.4,5.6-12.4,12.4v2.5
		h-6.8v3.2h6.8v4.9h-6.8v3.2h6.8v2.5c0,6.9,5.6,12.4,12.4,12.4h1.6C139.4,169,144.9,163.4,144.9,156.6z"/>
	<polygon class="st0" points="185,175.7 160.9,199.9 163.1,202.2 187.3,178 186.2,176.8 	"/>
</g>
</svg>
