<?xml version="1.0" encoding="utf-8"?>
<!-- Generator: Adobe Illustrator 20.1.0, SVG Export Plug-In . SVG Version: 6.00 Build 0)  -->
<svg version="1.1" id="Layer_1" xmlns="http://www.w3.org/2000/svg" xmlns:xlink="http://www.w3.org/1999/xlink" x="0px" y="0px"
	 viewBox="0 0 256.4 256.4" style="enable-background:new 0 0 256.4 256.4;" xml:space="preserve">
<style type="text/css">
	.st0{fill:#FFFFFF;}
</style>
<g>
	<path class="st0" d="M109.7,110.4c0-1.5-0.4-2.9-1.2-4h16.8c4,0,7.2-3.2,7.2-7.2c0-4-3.2-7.2-7.2-7.2h-4.6c0.8-1.2,1.2-2.5,1.2-4
		c0-4-3.2-7.2-7.2-7.2H81.3c-4,0-7.2,3.2-7.2,7.2c0,1.5,0.4,2.9,1.2,4h-1.1c-4,0-7.2,3.2-7.2,7.2c0,4,3.2,7.2,7.2,7.2h2.8
		c-0.8,1.2-1.2,2.5-1.2,4c0,4,3.2,7.2,7.2,7.2h19.6C106.5,117.6,109.7,114.4,109.7,110.4z M78.9,110.4c0-2.2,1.8-4,4-4v-3.2h-8.7
		c-2.2,0-4-1.8-4-4s1.8-4,4-4h7.1V92c-2.2,0-4-1.8-4-4s1.8-4,4-4h33.5c2.2,0,4,1.8,4,4s-1.8,4-4,4v3.2h10.6c2.2,0,4,1.8,4,4
		s-1.8,4-4,4h-22.8v3.2c2.2,0,4,1.8,4,4s-1.8,4-4,4H82.9C80.7,114.4,78.9,112.6,78.9,110.4z"/>
	<path class="st0" d="M203.1,192.1h-35.2c-4,0-7.2,3.2-7.2,7.2c0,4,3.2,7.2,7.2,7.2h2.2c-0.8,1.1-1.2,2.5-1.2,4c0,4,3.2,7.2,7.2,7.2
		h23.1c4,0,7.2-3.2,7.2-7.2c0-1.6-0.5-3.1-1.4-4.3c3.1-0.8,5.3-3.6,5.3-6.9C210.3,195.3,207,192.1,203.1,192.1z M203.1,203.3h-3.9
		v3.2c2.2,0,4,1.8,4,4c0,2.2-1.8,4-4,4h-23.1c-2.2,0-4-1.8-4-4c0-2.2,1.8-4,4-4v-3.2h-8.2c-2.2,0-4-1.8-4-4s1.8-4,4-4h35.2
		c2.2,0,4,1.8,4,4S205.3,203.3,203.1,203.3z"/>
	<path class="st0" d="M210,173.2h-17.2c-4,0-7.2,3.2-7.2,7.2c0,4,3.2,7.2,7.2,7.2H210c4,0,7.2-3.2,7.2-7.2
		C217.2,176.4,213.9,173.2,210,173.2z M210,184.4h-17.2c-2.2,0-4-1.8-4-4c0-2.2,1.8-4,4-4H210c2.2,0,4,1.8,4,4
		S212.2,184.4,210,184.4z"/>
</g>
<g>
	<path class="st0" d="M178.7,110.9c-0.1-0.2-0.3-0.4-0.5-0.5c-0.2-0.1-20.3-12.4-37.5,4.8l-6.5,6.5l-21.2,1.1
		c-4,0.2-7.7,1.9-10.5,4.7l-7.9,7.9c-0.4,0.4-0.6,0.9-0.5,1.5c0.1,0.5,0.4,1,0.9,1.3l14.9,7.8l-9.1,9.1c-0.7,0.7-0.7,1.8,0,2.4l3,3
		l-5.1,9.1c-0.4,0.7-0.3,1.5,0.3,2.1l18.6,18.6c0.3,0.3,0.8,0.5,1.2,0.5c0.3,0,0.6-0.1,0.8-0.2l9.1-5.1l3,3c0.3,0.3,0.8,0.5,1.2,0.5
		c0.4,0,0.9-0.2,1.2-0.5l9-9l7.7,14.6c0.2,0.5,0.7,0.8,1.3,0.9c0.1,0,0.2,0,0.3,0c0.4,0,0.9-0.2,1.2-0.5l7.9-7.9
		c2.8-2.8,4.5-6.6,4.7-10.5l1.1-20.7l6.8-6.8C191.1,131.2,178.9,111.1,178.7,110.9z M98.6,136.2l6.3-6.3c2.2-2.2,5.2-3.5,8.3-3.7
		l17.4-0.9l-18.1,18.1L98.6,136.2z M119,186.9l-16.8-16.8l4-7.1l19.8,19.9L119,186.9z M116.2,168.1l17.1-17.1l3.9,3.9L120.1,172
		L116.2,168.1z M162.6,175.8c-0.2,3.1-1.5,6.1-3.7,8.3l-6.3,6.3l-7.1-13.5l17.9-17.9L162.6,175.8z M132.8,184.7l-10.3-10.3
		l18.4-18.3c0.3-0.3,0.5-0.8,0.5-1.2s-0.2-0.9-0.5-1.2l-6.3-6.3c-0.7-0.7-1.8-0.7-2.4,0l-18.4,18.3l-9.4-9.4l38.7-38.7
		c14.3-14.3,30.3-6,32.9-4.5c1.4,2.5,9.6,18.8-4.5,33L132.8,184.7z"/>
	<path class="st0" d="M105,186.2l-9.3,9.3c-0.7,0.7-0.7,1.8,0,2.4c0.3,0.3,0.8,0.5,1.2,0.5s0.9-0.2,1.2-0.5l9.3-9.3
		c0.7-0.7,0.7-1.8,0-2.4C106.7,185.5,105.6,185.5,105,186.2z"/>
	<path class="st0" d="M98.3,182.6c-0.7-0.7-1.8-0.7-2.4,0l-9.3,9.3c-0.7,0.7-0.7,1.8,0,2.4c0.3,0.3,0.8,0.5,1.2,0.5s0.9-0.2,1.2-0.5
		l9.3-9.3C99,184.4,99,183.3,98.3,182.6z"/>
	<path class="st0" d="M158,122.7c-2.2,0-4.4,0.9-5.9,2.5c-3.3,3.3-3.3,8.6,0,11.9c1.6,1.6,3.8,2.5,5.9,2.5s4.3-0.8,5.9-2.5
		c1.6-1.6,2.5-3.7,2.5-5.9c0-2.2-0.9-4.4-2.5-5.9C162.4,123.5,160.3,122.7,158,122.7z M161.5,134.6c-1.9,1.9-5.1,1.9-7,0
		s-1.9-5.1,0-7c0.9-0.9,2.2-1.5,3.5-1.5c1.3,0,2.6,0.5,3.5,1.5s1.5,2.2,1.5,3.5C163,132.4,162.5,133.6,161.5,134.6z"/>
	<path class="st0" d="M151.1,153.1l-10.8,10.8c-0.7,0.7-0.7,1.8,0,2.4c0.3,0.3,0.8,0.5,1.2,0.5c0.4,0,0.9-0.2,1.2-0.5l10.8-10.8
		c0.7-0.7,0.7-1.8,0-2.4C152.9,152.4,151.8,152.4,151.1,153.1z"/>
	<path class="st0" d="M133.2,135.2L122.4,146c-0.7,0.7-0.7,1.8,0,2.4c0.3,0.3,0.8,0.5,1.2,0.5s0.9-0.2,1.2-0.5l10.8-10.8
		c0.7-0.7,0.7-1.8,0-2.4C135,134.5,133.9,134.5,133.2,135.2z"/>
	<path class="st0" d="M147.6,120.7c-2.8,2.8-4.3,6.4-4.3,10.4s1.5,7.6,4.3,10.4c2.9,2.9,6.6,4.3,10.4,4.3s7.5-1.4,10.4-4.3
		c2.8-2.8,4.3-6.4,4.3-10.4s-1.5-7.6-4.3-10.4C162.7,115,153.4,115,147.6,120.7z M166,139c-4.4,4.4-11.5,4.4-15.9,0
		c-2.1-2.1-3.3-4.9-3.3-7.9s1.2-5.8,3.3-7.9c2.2-2.2,5.1-3.3,7.9-3.3s5.8,1.1,7.9,3.3c2.1,2.1,3.3,4.9,3.3,7.9
		C169.2,134.1,168.1,136.9,166,139z"/>
</g>
</svg>
