<?xml version="1.0" encoding="UTF-8"?>
<svg width="158px" height="160px" viewBox="0 0 158 160" version="1.1" xmlns="http://www.w3.org/2000/svg" xmlns:xlink="http://www.w3.org/1999/xlink">
    <!-- Generator: Sketch 51.3 (57544) - http://www.bohemiancoding.com/sketch -->
    <title>Group</title>
    <desc>Created with Sketch.</desc>
    <defs>
        <linearGradient x1="0%" y1="0%" x2="101.999998%" y2="100.999999%" id="linearGradient-1">
            <stop stop-color="#5A266F" offset="0%"></stop>
            <stop stop-color="#C32788" offset="100%"></stop>
        </linearGradient>
    </defs>
    <g id="Landing" stroke="none" stroke-width="1" fill="none" fill-rule="evenodd">
        <g id="Desktop-1440-benefit-Copy-3" transform="translate(-361.000000, -631.000000)" fill="url(#linearGradient-1)" fill-rule="nonzero">
            <g id="Group" transform="translate(361.000000, 632.000000)">
                <path d="M68.337,153.551 L68.337,116.064 L98.923,116.064 L98.923,153.551 L68.337,153.551 Z M94.923,149.551 L94.923,120.064 L72.337,120.064 L72.337,149.551 L94.923,149.551 Z" id="Stroke-1"></path>
                <polygon id="Stroke-3" points="157.8841 149.5509 157.8841 153.5509 142.6301 153.5509 142.6301 149.5509"></polygon>
                <polygon id="Stroke-4" points="24.7874 149.5509 24.7874 153.5509 9.5334 153.5509 9.5334 149.5509"></polygon>
                <path d="M31.9964,11.256 L27.9964,11.256 C27.9964,6.69569398 24.299955,2.999 19.7404,2.999 L18.2134,2.999 C13.653845,2.999 9.9574,6.69569398 9.9574,11.256 L9.9574,26.661 C9.9574,31.2204305 13.6539695,34.917 18.2134,34.917 L19.7404,34.917 C24.2998305,34.917 27.9964,31.2204305 27.9964,26.661 L31.9964,26.661 C31.9964,33.4295695 26.5089695,38.917 19.7404,38.917 L18.2134,38.917 C11.4448305,38.917 5.9574,33.4295695 5.9574,26.661 L5.9574,11.256 C5.9574,4.48661529 11.4446457,-1.001 18.2134,-1.001 L19.7404,-1.001 C26.5091543,-1.001 31.9964,4.48661529 31.9964,11.256 Z" id="Stroke-5"></path>
                <polygon id="Stroke-6" points="22.0091 13.1066 22.0091 17.1066 0.0001 17.1066 0.0001 13.1066"></polygon>
                <polygon id="Stroke-7" points="22.0091 20.8097 22.0091 24.8097 0.0001 24.8097 0.0001 20.8097"></polygon>
                <path d="M68.3372,151.5509 L72.3372,151.5509 L72.3372,158.9509 L55.8012,158.9509 L55.8012,111.3889 C55.8012,106.704767 59.5083942,102.1259 64.0112,102.1259 L103.2492,102.1259 C107.754066,102.1259 111.5122,106.713418 111.5122,111.3889 L111.5122,158.9509 L94.9232,158.9509 L94.9232,151.5509 L98.9232,151.5509 L98.9232,154.9509 L107.5122,154.9509 L107.5122,111.3889 C107.5122,108.766198 105.349245,106.1259 103.2492,106.1259 L64.0112,106.1259 C61.9256531,106.1259 59.8012,108.749876 59.8012,111.3889 L59.8012,154.9509 L68.3372,154.9509 L68.3372,151.5509 Z" id="Stroke-8"></path>
                <polygon id="Stroke-9" points="81.6302 118.0636 85.6302 118.0636 85.6302 151.5506 81.6302 151.5506"></polygon>
                <polygon id="Stroke-10" points="78.3011 136.6329 78.3011 132.6329 88.9591 132.6329 88.9591 136.6329"></polygon>
                <path d="M115.571,136.192 L115.571,118.653 L135.416,118.653 L135.416,136.192 L115.571,136.192 Z M131.416,132.192 L131.416,122.653 L119.571,122.653 L119.571,132.192 L131.416,132.192 Z" id="Stroke-11"></path>
                <polygon id="Stroke-12" points="140.6302 111.3888 144.6302 111.3888 144.6302 153.5508 109.5122 153.5508 109.5122 149.5508 140.6302 149.5508"></polygon>
                <path d="M30.847,136.192 L30.847,118.653 L51.692,118.653 L51.692,136.192 L30.847,136.192 Z M34.847,132.192 L47.692,132.192 L47.692,122.653 L34.847,122.653 L34.847,132.192 Z" id="Stroke-13"></path>
                <polygon id="Stroke-14" points="57.8011 149.5509 57.8011 153.5509 22.7871 153.5509 22.7871 111.3889 26.7871 111.3889 26.7871 149.5509"></polygon>
                <polygon id="Stroke-15" points="57.801 109.3888 57.801 113.3888 16.722768 113.3888 27.0904603 91.3848 140.394021 91.3848 149.532207 113.3888 109.512 113.3888 109.512 109.3888 143.539793 109.3888 137.723979 95.3848 29.6275397 95.3848 23.029232 109.3888"></polygon>
                <path d="M105.571,81.025 L105.571,63.487 L125.416,63.487 L125.416,81.025 L105.571,81.025 Z M121.416,77.025 L121.416,67.487 L109.571,67.487 L109.571,77.025 L121.416,77.025 Z" id="Stroke-16"></path>
                <path d="M40.847,81.025 L40.847,63.487 L60.692,63.487 L60.692,81.025 L40.847,81.025 Z M56.692,77.025 L56.692,67.487 L44.847,67.487 L44.847,77.025 L56.692,77.025 Z" id="Stroke-17"></path>
                <polygon id="Stroke-18" points="130.6302 57.2228 134.6302 57.2228 134.6302 93.3848 130.6302 93.3848"></polygon>
                <polygon id="Stroke-19" points="36.7874 93.3849 32.7874 93.3849 32.7874 57.2229 36.7874 57.2229"></polygon>
                <polygon id="Stroke-20" points="90.6302 57.2228 94.6302 57.2228 94.6302 75.3038 72.7332 75.3038 72.7332 57.2228 76.7332 57.2228 76.7332 71.3038 90.6302 71.3038"></polygon>
                <path d="M32.787,59.223 L32.787,45.288 L134.63,45.288 L134.63,59.223 L32.787,59.223 Z M130.63,55.223 L130.63,49.288 L36.787,49.288 L36.787,55.223 L130.63,55.223 Z" id="Stroke-21"></path>
            </g>
        </g>
    </g>
</svg>