<?xml version="1.0" encoding="UTF-8"?>
<svg width="86px" height="90px" viewBox="0 0 86 90" version="1.1" xmlns="http://www.w3.org/2000/svg" xmlns:xlink="http://www.w3.org/1999/xlink">
    <!-- Generator: Sketch 51.3 (57544) - http://www.bohemiancoding.com/sketch -->
    <title>Group 3</title>
    <desc>Created with Sketch.</desc>
    <defs>
        <polygon id="path-1" points="0.0376336 0.582142857 85.705536 0.582142857 85.705536 89.301 0.0376336 89.301"></polygon>
    </defs>
    <g id="Landing" stroke="none" stroke-width="1" fill="none" fill-rule="evenodd">
        <g id="Mobile" transform="translate(-55.000000, -2518.000000)">
            <g id="HEADER" transform="translate(-38.000000, 14.000000)">
                <g id="Group-3" transform="translate(93.000000, 2504.000000)">
                    <g id="Group">
                        <mask id="mask-2" fill="white">
                            <use xlink:href="#path-1"></use>
                        </mask>
                        <g id="Clip-2"></g>
                        <path d="M75.0578416,40.2574286 L37.8349776,78.9031429 L27.6436336,68.3224286 L46.3510416,48.901 L38.3764336,40.6217143 L19.6697136,60.0431429 L10.2675056,50.2817143 L47.4903696,11.6367143 C61.3969136,-2.80042857 77.0509776,5.71028571 79.3998096,7.12028571 C80.6726096,9.46028571 88.8391696,25.9495714 75.0578416,40.2574286 Z M66.6587376,69.6224286 C66.4984336,72.7981429 65.2173776,75.7845714 63.0515536,78.0331429 L56.7886896,84.5352857 L53.9960976,79.0095714 L60.6070896,72.146 L58.6614256,70.1252857 L52.6565616,76.3595714 L49.7380656,70.5845714 L67.5455696,52.0967143 L66.6587376,69.6224286 Z M21.6153776,62.0631429 L38.3764336,44.6617143 L42.4590256,48.901 L25.6979696,66.3024286 L21.6153776,62.0631429 Z M24.5682736,80.9967143 L8.2502896,64.0552857 L12.3590256,56.4938571 L31.8514416,76.731 L24.5682736,80.9967143 Z M14.4711856,35.7445714 L21.1716176,28.7874286 L19.2259536,26.7674286 L11.9193936,34.3531429 L4.6286576,30.3824286 L10.8922096,23.8795714 C13.0573456,21.6317143 15.9338736,20.3017143 18.9927216,20.1345714 L36.3234416,19.1902857 L18.3453136,37.8545714 L14.4711856,35.7445714 Z M81.4067056,5.04528571 L81.1383856,4.871 C80.9478096,4.74742857 61.8736976,-7.33685714 45.5447056,9.61671429 L39.2316176,16.1702857 L18.8482416,17.2817143 C15.1096496,17.4852857 11.5925936,19.1117143 8.9458576,21.8595714 L0.0376336,31.1074286 L16.3067696,39.971 L6.3754896,50.2817143 L10.3390576,54.3974286 L4.8261136,64.541 L24.1004336,84.5517143 L33.8714096,78.8281429 L37.8349776,82.9431429 L47.6995216,72.701 L56.0896816,89.301 L64.9972176,80.0531429 C67.6453296,77.3045714 69.2105296,73.6538571 69.4072976,69.7717143 L70.4537456,49.0781429 L77.0035056,42.2774286 C93.3324976,25.3252857 81.6942896,5.52171429 81.5745776,5.32385714 L81.4067056,5.04528571 Z" id="Fill-1" fill="#FFFFFF" mask="url(#mask-2)"></path>
                        <polygon id="Fill-4" fill="#FFFFFF" mask="url(#mask-2)" points="2.4986784 89.4085 4.4443424 91.4285 13.3560064 82.1763571 11.4103424 80.1563571"></polygon>
                        <polygon id="Fill-6" fill="#FFFFFF" mask="url(#mask-2)" points="2.7197328 76.6057143 -6.1919312 85.8578571 -4.2462672 87.8778571 4.6653968 78.6257143"></polygon>
                        <path d="M65.545072,28.8881429 C63.586336,30.921 60.39952,30.921 58.441472,28.8881429 C56.483424,26.8545714 56.483424,23.546 58.441472,21.5131429 C59.420496,20.4967143 60.707056,19.9881429 61.992928,19.9881429 C63.279488,19.9881429 64.566048,20.4967143 65.545072,21.5131429 C67.50312,23.546 67.50312,26.8545714 65.545072,28.8881429 M56.495808,19.4931429 C53.463792,22.6402857 53.463792,27.761 56.495808,30.9081429 C58.011472,32.4817143 60.001856,33.2688571 61.992928,33.2688571 C63.984,33.2688571 65.975072,32.4817143 67.490736,30.9081429 C70.522064,27.761 70.522064,22.6402857 67.490736,19.4931429 C64.459408,16.3452857 59.527136,16.3452857 56.495808,19.4931429" id="Fill-8" fill="#FFFFFF" mask="url(#mask-2)"></path>
                        <polygon id="Fill-10" fill="#FFFFFF" mask="url(#mask-2)" points="45.2403344 58.0217857 47.1859984 60.0417857 57.5321424 49.3003571 55.5864784 47.2803571"></polygon>
                        <polygon id="Fill-12" fill="#FFFFFF" mask="url(#mask-2)" points="28.0833344 40.2099286 30.0289984 42.2299286 40.3758304 31.4877857 38.4301664 29.4677857"></polygon>
                        <path d="M69.7809504,33.2861429 C65.4871424,37.7447143 58.5005024,37.744 54.2053184,33.2861429 C49.9115104,28.8275714 49.9115104,21.574 54.2053184,17.1147143 C56.3525664,14.8854286 59.1726784,13.7718571 61.9934784,13.7718571 C64.8129024,13.7718571 67.6337024,14.8861429 69.7809504,17.1147143 C74.0747584,21.574 74.0747584,28.8275714 69.7809504,33.2861429 M52.2596544,15.0947143 C46.8925664,20.6668571 46.8925664,29.734 52.2596544,35.3061429 C54.9435424,38.0925714 58.4681664,39.4854286 61.9934784,39.4854286 C65.5181024,39.4854286 69.0434144,38.0925714 71.7266144,35.3061429 C77.0937024,29.734 77.0937024,20.6668571 71.7266144,15.0947143 C66.3595264,9.52257143 57.6267424,9.52257143 52.2596544,15.0947143" id="Fill-14" fill="#FFFFFF" mask="url(#mask-2)"></path>
                    </g>
                </g>
            </g>
        </g>
    </g>
</svg>