<?xml version="1.0" encoding="UTF-8"?>
<svg width="134px" height="129px" viewBox="0 0 134 129" version="1.1" xmlns="http://www.w3.org/2000/svg" xmlns:xlink="http://www.w3.org/1999/xlink">
    <!-- Generator: Sketch 51.3 (57544) - http://www.bohemiancoding.com/sketch -->
    <title>Group</title>
    <desc>Created with Sketch.</desc>
    <defs>
        <linearGradient x1="0%" y1="0%" x2="101.999998%" y2="100.999999%" id="linearGradient-1">
            <stop stop-color="#5A266F" offset="0%"></stop>
            <stop stop-color="#C32788" offset="100%"></stop>
        </linearGradient>
    </defs>
    <g id="Landing" stroke="none" stroke-width="1" fill="none" fill-rule="evenodd">
        <g id="Desktop-1440-hero1" transform="translate(-367.000000, -3344.000000)" fill="url(#linearGradient-1)" fill-rule="nonzero">
            <g id="Group" transform="translate(368.000000, 3347.000000)">
                <path d="M99.6453864,106.497886 C102.787656,103.355617 104.65525,99.1611537 104.88835,94.7232608 L106.44935,64.9852608 L110.44385,65.1949392 L108.882847,94.9330051 C108.597907,100.357862 106.314966,105.485161 102.473749,109.326378 L89.5255583,122.273395 L76.0685847,96.6263496 L79.6106153,94.7678504 L90.5416417,115.600805 L99.6453864,106.497886 Z" id="Stroke-1"></path>
                <path d="M62.9929127,113.37214 L17.2674856,67.6467127 L74.1986864,10.7144864 C76.9070557,8.00611717 79.7428805,5.74856794 82.6926213,3.92207446 C94.7008544,-3.51348044 107.49628,-3.4798139 119.440993,1.01154723 C121.192198,1.67002232 122.771136,2.37665728 124.1549,3.08588405 C124.998731,3.51837656 125.599647,3.86201485 125.934382,4.07163182 L126.323974,4.3156013 L126.56795,4.70518918 C126.777563,5.03990425 127.121191,5.64078249 127.553671,6.48456012 C128.262876,7.86823427 128.969489,9.44707386 129.627943,11.198174 C134.119579,23.1432786 134.152827,35.9392396 126.715643,47.9479445 C124.889258,50.8969811 122.631988,53.7321575 119.924126,56.4399008 L62.9929127,113.37214 Z M117.095717,53.6114555 C119.587928,51.1193541 121.652655,48.5260148 123.314991,45.8418662 C130.007609,35.0353997 129.977619,23.4929381 125.883887,12.6060258 C125.281022,11.0027606 124.636222,9.56203267 123.994013,8.3090695 C123.782862,7.89710891 123.587289,7.53570183 123.412101,7.22752107 C123.103889,7.05232054 122.742444,6.8567338 122.330439,6.64556702 C121.077383,6.00333208 119.636551,5.35850534 118.033176,4.75561617 C107.146549,0.662108724 95.6044737,0.631739929 84.798426,7.32289588 C82.1136531,8.98531999 79.5197372,11.0502899 77.0271263,13.5429008 L22.9243144,67.6466873 L62.9928873,107.71526 L117.095717,53.6114555 Z" id="Stroke-3"></path>
                <path d="M35.5612182,50.7175683 L33.7027818,54.2596317 L8.05444115,40.8025574 L9.97685057,38.8803223 L21.0027864,27.8553864 C24.8446275,24.0135454 29.9723302,21.7301356 35.3960938,21.4463532 L65.1340938,19.8843532 L65.3439062,23.8788468 L35.6055011,25.440868 C31.1687306,25.6730089 26.9741241,27.540903 23.8311494,30.6838777 L14.7275589,39.7866426 L35.5612182,50.7175683 Z" id="Stroke-5"></path>
                <polygon id="Stroke-7" points="24.5849864 109.470386 27.4134136 112.298814 14.4604136 125.251814 11.6319864 122.423386"></polygon>
                <polygon id="Stroke-9" points="11.9531864 104.499586 14.7816136 107.328014 1.82861356 120.281014 -0.999813562 117.452586"></polygon>
                <polygon id="Stroke-11" points="56.5892073 103.380928 58.5547927 106.864672 43.0298368 115.624105 15.0157841 87.6089697 23.7740754 72.0841004 27.2579246 74.0494996 19.9922159 86.9286303 43.7101632 110.647495"></polygon>
                <path d="M103.269086,37.6948864 C106.120038,34.843935 106.120038,30.221265 103.269086,27.3703136 C100.418135,24.5193621 95.795465,24.5193621 92.9445136,27.3703136 C90.0935621,30.221265 90.0935621,34.843935 92.9445136,37.6948864 C95.795465,40.5458379 100.418135,40.5458379 103.269086,37.6948864 Z M106.097514,40.5233136 C101.684465,44.9363621 94.529135,44.9363621 90.1160864,40.5233136 C85.7030379,36.110265 85.7030379,28.954935 90.1160864,24.5418864 C94.529135,20.1288379 101.684465,20.1288379 106.097514,24.5418864 C110.510562,28.954935 110.510562,36.110265 106.097514,40.5233136 Z" id="Stroke-13"></path>
                <polygon id="Stroke-15" points="37.8055136 85.7528136 34.9770864 82.9243864 63.7803807 54.1210922 75.3706206 65.7126549 46.5685394 94.5157877 43.7400606 91.6874123 69.7139794 65.7125451 63.7802193 59.7781078"></polygon>
                <polygon id="Stroke-17" points="88.7944394 63.4440335 91.6229606 66.2723665 76.5849606 81.3113665 73.7564394 78.4830335"></polygon>
                <polygon id="Stroke-19" points="63.8575335 38.5073394 66.6858665 41.3358606 51.6468665 56.3738606 48.8185335 53.5453394"></polygon>
                <path d="M109.425786,43.8521864 C115.677704,37.6011575 115.677704,27.4646425 109.425686,21.213513 C103.174757,14.9616957 93.0382425,14.9616957 86.787113,21.2137141 C80.5352957,27.4646425 80.5352957,37.6011575 86.7872136,43.8521864 C93.038165,50.1031379 103.174835,50.1031379 109.425786,43.8521864 Z M83.958887,46.6807141 C76.1447043,38.8676425 76.1447043,26.1981575 83.9586859,18.385287 C91.7717575,10.5711043 104.441243,10.5711043 112.254113,18.3850859 C120.068279,26.1981407 120.068296,38.8675882 112.254163,46.6806638 C104.441111,54.4936621 91.7718183,54.4936454 83.958887,46.6807141 Z" id="Stroke-21"></path>
                <polygon id="Stroke-23" points="27.1122136 49.2157136 24.2837864 46.3872864 35.9447864 34.7262864 38.7732136 37.5547136"></polygon>
                <polygon id="Stroke-25" points="85.4422136 108.906214 82.6137864 106.077786 93.2637864 95.4277864 96.0922136 98.2562136"></polygon>
            </g>
        </g>
    </g>
</svg>