<?xml version="1.0" encoding="UTF-8"?>
<svg width="95px" height="101px" viewBox="0 0 95 101" version="1.1" xmlns="http://www.w3.org/2000/svg" xmlns:xlink="http://www.w3.org/1999/xlink">
    <!-- Generator: Sketch 51.3 (57544) - http://www.bohemiancoding.com/sketch -->
    <title>Group</title>
    <desc>Created with Sketch.</desc>
    <defs></defs>
    <g id="Landing" stroke="none" stroke-width="1" fill="none" fill-rule="evenodd">
        <g id="Mobile-Copy-4" transform="translate(-51.000000, -392.000000)" fill="#FFFFFF">
            <g id="Group" transform="translate(51.000000, 392.000000)">
                <polygon id="Fill-2" points="47.7543116 0 45 0.0158513514 45.0681522 11.922973 47.8217754 11.9064324"></polygon>
                <polygon id="Fill-3" points="85.2999275 16.9421351 83.3448551 15 75 23.4177568 76.9550725 25.3605811"></polygon>
                <polygon id="Fill-4" points="69.1807609 4.07927027 66.6460507 3 62 13.9319189 64.5347101 15.0111892"></polygon>
                <g id="Group-12" transform="translate(0.000000, 17.752135)">
                    <g id="Group-7">
                        <path d="M66.3815942,74.5199595 L55.9088768,64.0353243 L60.7772826,59.1620676 L66.3815942,64.7727568 L85.9832609,45.149473 L90.8516667,50.0227297 L66.3815942,74.5199595 Z M44.4021739,70.2972973 C25.8028261,70.2972973 10.6702899,55.1482297 10.6702899,36.527027 C10.6702899,17.9058243 25.8028261,2.75675676 44.4021739,2.75675676 C63.0022101,2.75675676 78.134058,17.9058243 78.134058,36.527027 C78.134058,42.9082297 76.3559058,48.8814324 73.2711594,53.9772973 L66.3815942,60.8747027 L60.7772826,55.2640135 L52.0152536,64.0353243 L56.1546377,68.1794189 C52.4923188,69.5460811 48.5339855,70.2972973 44.4021739,70.2972973 Z M9.35130435,56.5610676 L13.9168116,56.5610676 C17.4786232,61.9753378 22.4351449,66.3868378 28.2755797,69.2807432 C20.5847101,67.3482568 13.9340217,62.7651486 9.35130435,56.5610676 Z M9.51858696,47.2335811 C10.2228261,49.5278919 11.1466667,51.7264054 12.2660145,53.8043108 L7.5173913,53.8043108 C6.28789855,51.7457027 5.27525362,49.5444324 4.50148551,47.2335811 L9.51858696,47.2335811 Z M7.95177536,35.1486486 L2.78873188,35.1486486 C2.87960145,32.895 3.19351449,30.6978649 3.70637681,28.5779189 L8.79782609,28.5779189 C8.32351449,30.7054459 8.03576087,32.9005135 7.95177536,35.1486486 Z M2.78873188,37.9054054 L7.95177536,37.9054054 C8.03576087,40.1542297 8.32351449,42.3492973 8.79782609,44.4768243 L3.70706522,44.4768243 C3.19351449,42.3561892 2.87960145,40.1597432 2.78873188,37.9054054 Z M7.5173913,19.2497432 L12.2660145,19.2497432 C11.1466667,21.3276486 10.2228261,23.5268514 9.51858696,25.8211622 L4.50148551,25.8211622 C5.27525362,23.5096216 6.28789855,21.3083514 7.5173913,19.2497432 Z M28.2755797,3.77331081 C22.4351449,6.66721622 17.4786232,11.0787162 13.9168116,16.4929865 L9.35130435,16.4929865 C13.9340217,10.2889054 20.5847101,5.7057973 28.2755797,3.77331081 Z M78.9277899,48.3156081 C80.1917029,44.6132838 80.8876812,40.6511351 80.8876812,36.527027 C80.8876812,16.385473 64.5208333,0 44.4021739,0 L36.4855072,0 C16.3675362,0 0,16.385473 0,36.527027 C0,56.6685811 16.3675362,73.0540541 36.4855072,73.0540541 L44.4021739,73.0540541 C49.3125725,73.0540541 53.9964855,72.0719595 58.2763043,70.3035 L66.3815942,78.4180135 L94.7452899,50.0227297 L85.9832609,41.2514189 L78.9277899,48.3156081 Z" id="Fill-5"></path>
                    </g>
                    <path d="M57.617029,43.7088108 L54.8634058,43.7088108 C54.8634058,48.0899865 51.302971,51.6551622 46.9267754,51.6551622 L45.5396377,51.6551622 C41.163442,51.6551622 37.6030072,48.0899865 37.6030072,43.7088108 L37.6030072,41.5861081 L48.9864855,41.5861081 L48.9864855,38.8293514 L37.6030072,38.8293514 L37.6030072,34.5832568 L48.9864855,34.5832568 L48.9864855,31.8265 L37.6030072,31.8265 L37.6030072,29.7031081 C37.6030072,25.3212432 41.163442,21.7567568 45.5396377,21.7567568 L46.9267754,21.7567568 C51.302971,21.7567568 54.8634058,25.3212432 54.8634058,29.7031081 L57.617029,29.7031081 C57.617029,23.8015811 52.8209058,19 46.9267754,19 L45.5396377,19 C39.6455072,19 34.8493841,23.8015811 34.8493841,29.7031081 L34.8493841,31.8265 L29,31.8265 L29,34.5832568 L34.8493841,34.5832568 L34.8493841,38.8293514 L29,38.8293514 L29,41.5861081 L34.8493841,41.5861081 L34.8493841,43.7088108 C34.8493841,49.6103378 39.6455072,54.4119189 45.5396377,54.4119189 L46.9267754,54.4119189 C52.8209058,54.4119189 57.617029,49.6103378 57.617029,43.7088108" id="Fill-8"></path>
                    <polygon id="Fill-10" points="91.8146377 60 71 80.8376351 72.9468116 82.7866622 93.7614493 61.949027 92.7880435 60.9745135"></polygon>
                </g>
            </g>
        </g>
    </g>
</svg>