<?xml version="1.0" encoding="UTF-8"?>
<svg width="112px" height="118px" viewBox="0 0 112 118" version="1.1" xmlns="http://www.w3.org/2000/svg" xmlns:xlink="http://www.w3.org/1999/xlink">
    <!-- Generator: Sketch 51.3 (57544) - http://www.bohemiancoding.com/sketch -->
    <title>Group 6</title>
    <desc>Created with Sketch.</desc>
    <defs></defs>
    <g id="Landing" stroke="none" stroke-width="1" fill="none" fill-rule="evenodd">
        <g id="Mobile-Copy-6" transform="translate(-46.000000, -377.000000)" fill="#FFFFFF">
            <g id="HEADER" transform="translate(0.000000, 348.000000)">
                <g id="Group-6" transform="translate(46.000000, 29.000000)">
                    <path d="M78.8662025,111.052409 L99.6716436,111.052409 L99.6716436,84.3277232 L78.8662025,84.3277232 L78.8662025,111.052409 Z M72.9621101,76.0048037 L44.92571,76.0048037 C42.0754831,76.0048037 39.8440321,78.609134 39.2324015,81.3716161 L15.6431841,81.3716161 L20.3575979,71.0230242 L97.5952437,71.0230242 L101.750902,81.3716161 L78.6925737,81.3716161 C78.0759415,78.609134 75.8302,76.0048037 72.9621101,76.0048037 Z M76.0081159,115.043893 L69.8710895,115.043893 L69.8710895,114.009255 L69.8710895,112.531202 L69.8710895,86.3038808 L48.0167306,86.3038808 L48.0167306,112.531202 L48.0167306,114.009255 L48.0167306,115.043893 L41.9175739,115.043893 L41.9175739,82.8496696 C41.9175739,81.0989152 43.3051749,78.9609108 44.92571,78.9609108 L72.9621101,78.9609108 C74.6026518,78.9609108 76.0081159,81.0989152 76.0081159,82.8496696 L76.0081159,115.043893 Z M57.5148668,98.5502934 L55.1362242,98.5502934 L55.1362242,101.5064 L57.5148668,101.5064 L57.5148668,111.053148 L50.8748172,111.053148 L50.8748172,89.2599879 L57.5148668,89.2599879 L57.5148668,98.5502934 Z M67.0130029,111.053148 L60.3729533,111.053148 L60.3729533,101.5064 L62.7515959,101.5064 L62.7515959,98.5502934 L60.3729533,98.5502934 L60.3729533,89.2599879 L67.0130029,89.2599879 L67.0130029,111.053148 Z M18.3283564,111.052409 L39.0594873,111.052409 L39.0594873,84.3277232 L18.3283564,84.3277232 L18.3283564,111.052409 Z M25.4735728,44.297599 L51.1570532,44.297599 L51.1570532,56.1826276 L66.8036481,56.1826276 L66.8036481,44.297599 L92.5264272,44.297599 L92.5264272,68.0669171 L25.4735728,68.0669171 L25.4735728,44.297599 Z M54.0151398,53.2257815 L63.944847,53.2257815 L63.944847,44.297599 L54.0151398,44.297599 L54.0151398,53.2257815 Z M25.4735728,41.342231 L92.5264272,41.342231 L92.5264272,36.9561071 L25.4735728,36.9561071 L25.4735728,41.342231 Z M102.52973,111.053148 L102.52973,84.3277232 L106.032315,84.3277232 L99.5030165,68.0669171 L95.3845138,68.0669171 L95.3845138,44.297599 L95.3845138,42.8195455 L95.3845138,34 L22.6154862,34 L22.6154862,42.8195455 L22.6154862,44.297599 L22.6154862,68.0669171 L18.5448565,68.0669171 L11.1374106,84.3277232 L15.4702698,84.3277232 L15.4702698,111.053148 L6,111.053148 L6,114.009255 L15.4702698,114.009255 L16.8993131,114.009255 L39.0594873,114.009255 L39.0594873,118 L50.8748172,118 L50.8748172,114.009255 L67.0130029,114.009255 L67.0130029,118 L78.8662025,118 L78.8662025,114.009255 L101.100687,114.009255 L102.52973,114.009255 L112,114.009255 L112,111.053148 L102.52973,111.053148 Z" id="Fill-1"></path>
                    <path d="M13.0922303,30 L14.1898987,30 C19.0478185,30 23,25.8680295 23,20.7891177 L20.1246406,20.7891177 C20.1246406,24.2108823 17.4627766,26.9938374 14.1898987,26.9938374 L13.0922303,26.9938374 C9.81935242,26.9938374 7.15748844,24.2108823 7.15748844,20.7891177 L7.15748844,19.3980159 L15.8209464,19.3980159 L15.8209464,16.3918533 L7.15748844,16.3918533 L7.15748844,13.6081467 L15.8209464,13.6081467 L15.8209464,10.6019841 L7.15748844,10.6019841 L7.15748844,9.21163385 C7.15748844,5.78986923 9.81935242,3.00616263 13.0922303,3.00616263 L14.1898987,3.00616263 C17.4627766,3.00616263 20.1246406,5.78986923 20.1246406,9.21163385 L23,9.21163385 C23,4.13197054 19.0478185,0 14.1898987,0 L13.0922303,0 C8.23431054,0 4.28212902,4.13197054 4.28212902,9.21163385 L4.28212902,10.6019841 L0,10.6019841 L0,13.6081467 L4.28212902,13.6081467 L4.28212902,16.3918533 L0,16.3918533 L0,19.3980159 L4.28212902,19.3980159 L4.28212902,20.7891177 C4.28212902,25.8680295 8.23431054,30 13.0922303,30" id="Fill-3"></path>
                    <path d="M84.8218695,97.0351787 L93.1781305,97.0351787 L93.1781305,89.9648213 L84.8218695,89.9648213 L84.8218695,97.0351787 Z M82,100 L96,100 L96,87 L82,87 L82,100 Z" id="Fill-4"></path>
                    <path d="M24.8776685,97.0351787 L34.1208923,97.0351787 L34.1208923,89.9648213 L24.8776685,89.9648213 L24.8776685,97.0351787 Z M22,100 L37,100 L37,87 L22,87 L22,100 Z" id="Fill-5"></path>
                    <path d="M77.8218695,57.0350097 L86.1781305,57.0350097 L86.1781305,49.9649903 L77.8218695,49.9649903 L77.8218695,57.0350097 Z M75,60 L89,60 L89,47 L75,47 L75,60 Z" id="Fill-6"></path>
                    <path d="M31.8218695,57.0350097 L40.1781305,57.0350097 L40.1781305,49.9649903 L31.8218695,49.9649903 L31.8218695,57.0350097 Z M29,60 L43,60 L43,47 L29,47 L29,60 Z" id="Fill-7"></path>
                </g>
            </g>
        </g>
    </g>
</svg>