<?xml version="1.0" encoding="UTF-8"?>
<svg width="118px" height="101px" viewBox="0 0 118 101" version="1.1" xmlns="http://www.w3.org/2000/svg" xmlns:xlink="http://www.w3.org/1999/xlink">
    <!-- Generator: Sketch 51.3 (57544) - http://www.bohemiancoding.com/sketch -->
    <title>Group</title>
    <desc>Created with Sketch.</desc>
    <defs></defs>
    <g id="Landing" stroke="none" stroke-width="1" fill="none" fill-rule="evenodd">
        <g id="Mobile-Copy-5" transform="translate(-44.000000, -398.000000)">
            <g id="Group" transform="translate(44.000000, 398.000000)">
                <path d="M102,40 L102,40.0006918" id="Stroke-3"></path>
                <path d="M19.7602339,26.6841164 L30.6500468,26.6841164 L30.6500468,15.7671233 L19.7602339,15.7671233 L19.7602339,26.6841164 Z M17,29.4512397 L33.4102807,29.4512397 L33.4102807,13 L17,13 L17,29.4512397 Z" id="Fill-4" fill="#FFFFFF"></path>
                <path d="M42.7602339,26.6841164 L53.6507368,26.6841164 L53.6507368,15.7671233 L42.7602339,15.7671233 L42.7602339,26.6841164 Z M40,29.4512397 L56.4109708,29.4512397 L56.4109708,13 L40,13 L40,29.4512397 Z" id="Fill-5" fill="#FFFFFF"></path>
                <path d="M65.7602339,26.6841164 L76.6500468,26.6841164 L76.6500468,15.7671233 L65.7602339,15.7671233 L65.7602339,26.6841164 Z M63,29.4512397 L79.4102807,29.4512397 L79.4102807,13 L63,13 L63,29.4512397 Z" id="Fill-6" fill="#FFFFFF"></path>
                <g id="Group-9" transform="translate(0.000000, 0.321678)" fill="#FFFFFF">
                    <path d="M113.390409,59.2800822 L76.7759064,95.9866644 C75.1984327,97.5673836 72.6321053,97.5673836 71.0539415,95.9866644 L66.5809825,91.5011575 L108.91676,49.0597123 L113.390409,53.5445274 C114.154304,54.3103288 114.57593,55.3293219 114.57593,56.4119589 C114.57593,57.4952877 114.154304,58.5142808 113.390409,59.2800822 Z M65.737731,78.4112808 L70.7358246,83.4225411 L64.6294971,89.5448014 L59.6307135,84.5342329 L65.737731,78.4112808 Z M51.6750292,74.8790479 C51.6750292,73.7950274 52.096655,72.776726 52.8605497,72.0102329 L89.4750526,35.3050342 C90.2630994,34.5143288 91.2995673,34.1193219 92.335345,34.1193219 C93.3718129,34.1193219 94.4075906,34.5143288 95.1970175,35.3050342 L100.015006,40.1357397 L57.6792281,82.5778767 L52.8605497,77.7464795 C52.096655,76.9806781 51.6750292,75.9616849 51.6750292,74.8790479 Z M59.991614,57.2497055 L57.8689942,57.2497055 C56.5213099,57.2497055 54.9472865,56.6257192 54.9472865,54.8665205 L54.9472865,53.8129384 L62.9147018,53.8129384 L62.9147018,54.8665205 C62.9147018,56.6257192 61.3399883,57.2497055 59.991614,57.2497055 Z M49.2639649,57.2497055 L47.141345,57.2497055 C45.7929708,57.2497055 44.2189474,56.6257192 44.2189474,54.8665205 L44.2189474,53.8129384 L52.1870526,53.8129384 L52.1870526,54.8665205 C52.1870526,56.6257192 50.6123392,57.2497055 49.2639649,57.2497055 Z M38.5356257,57.2497055 L36.4136959,57.2497055 C35.0653216,57.2497055 33.4912982,56.6257192 33.4912982,54.8665205 L33.4912982,53.8129384 L41.4587135,53.8129384 L41.4587135,54.8665205 C41.4587135,56.6257192 39.8846901,57.2497055 38.5356257,57.2497055 Z M27.8086667,57.2497055 L25.6860468,57.2497055 C24.3376725,57.2497055 22.7636491,56.6257192 22.7636491,54.8665205 L22.7636491,53.8129384 L30.7310643,53.8129384 L30.7310643,54.8665205 C30.7310643,56.6257192 29.1570409,57.2497055 27.8086667,57.2497055 Z M17.0810175,57.2497055 L14.9583977,57.2497055 C13.6100234,57.2497055 12.036,56.6257192 12.036,54.8665205 L12.036,53.8129384 L18.9683275,53.8129384 L20.0034152,53.8129384 L20.0034152,54.8665205 C20.0034152,56.6257192 18.4293918,57.2497055 17.0810175,57.2497055 Z M2.76023392,51.0458151 L2.76023392,6.17483562 C2.76023392,4.2959589 4.28595322,2.76712329 6.16015205,2.76712329 L8.94453801,2.76712329 C8.29588304,3.74460959 7.91566082,4.91579452 7.91566082,6.17483562 L7.91566082,51.0458151 L2.76023392,51.0458151 Z M18.9683275,51.0458151 L10.6758947,51.0458151 L10.6758947,41.3982397 L79.4933567,41.3982397 L69.8704912,51.0458151 L18.9683275,51.0458151 Z M65.6749357,54.8665205 L65.6749357,53.8129384 L67.1102573,53.8129384 L65.714269,55.2117192 C65.6997778,55.0975753 65.6749357,54.9917329 65.6749357,54.8665205 Z M101.622152,52.4591233 L96.6233684,47.4485548 L101.966491,42.0920959 L106.964585,47.1026644 L101.622152,52.4591233 Z M80.0426433,74.0924932 L75.0445497,69.0819247 L94.671883,49.4056027 L99.6706667,54.4154795 L80.0426433,74.0924932 Z M72.688,81.4654932 L67.6892164,76.4549247 L73.0930643,71.0382808 L78.0911579,76.0488493 L72.688,81.4654932 Z M18.9683275,2.76712329 L69.595848,2.76712329 C81.7898713,2.76712329 91.3250994,7.05132192 98.3912982,12.7246164 L86.5830175,12.7246164 L86.5830175,29.1758562 L111.525871,29.1758562 C113.261368,32.8083973 114.10945,35.984363 114.10945,38.0119726 C114.10945,42.0035479 113.128187,45.4050342 111.500339,47.7363356 L97.1485029,33.3486781 C94.494538,30.688089 90.175462,30.688089 87.5235673,33.3486781 L82.2535906,38.6311164 L10.6758947,38.6311164 L10.6758947,6.17483562 C10.6758947,4.2959589 12.201614,2.76712329 14.0765029,2.76712329 L18.9683275,2.76712329 Z M110.073988,26.4087329 L89.3432515,26.4087329 L89.3432515,15.4917397 L101.540035,15.4917397 C105.200105,19.003911 108.032795,22.8315342 110.073988,26.4087329 Z M113.464936,49.7065274 C115.591696,46.8833699 116.869684,42.7970205 116.869684,38.0119726 C116.869684,28.8486438 102.646889,0 69.595848,0 L18.9683275,0 L14.0765029,0 L6.16015205,0 C2.76368421,0 0,2.76989041 0,6.17483562 L0,53.8129384 L7.91566082,53.8129384 L9.27576608,53.8129384 L9.27576608,54.8665205 C9.27576608,57.8515548 11.6661287,60.0168288 14.9583977,60.0168288 L17.0810175,60.0168288 C18.8572281,60.0168288 20.3656959,59.3824658 21.3835322,58.333726 C22.4013684,59.3824658 23.9098363,60.0168288 25.6860468,60.0168288 L27.8086667,60.0168288 C29.5848772,60.0168288 31.093345,59.3824658 32.1111813,58.333726 C33.1283275,59.3824658 34.6374854,60.0168288 36.4136959,60.0168288 L38.5356257,60.0168288 C40.3125263,60.0168288 41.8209942,59.3824658 42.8388304,58.333726 C43.8559766,59.3824658 45.3651345,60.0168288 47.141345,60.0168288 L49.2639649,60.0168288 C51.0408655,60.0168288 52.5493333,59.3824658 53.5671696,58.333726 C54.5836257,59.3824658 56.0927836,60.0168288 57.8689942,60.0168288 L59.991614,60.0168288 C60.3380234,60.0168288 60.6720117,59.987774 60.9963392,59.9414247 L54.2337661,66.7208767 L9.28266667,66.7208767 L9.28266667,69.488 L51.4735322,69.488 L50.9090643,70.0538767 C49.6807602,71.2852466 48.9865614,72.906089 48.9265263,74.6383082 L25.1919649,74.6383082 L25.1919649,77.4054315 L49.3992164,77.4054315 C49.737345,78.2556301 50.243848,79.0373425 50.9090643,79.7028356 L69.1024561,97.9430205 C70.4294386,99.2733151 72.1732164,99.9374247 73.915614,99.9374247 C75.6580117,99.9374247 77.4017895,99.2733151 78.7280819,97.9430205 L115.341895,61.2364384 C116.627474,59.9483425 117.336164,58.2348014 117.336164,56.4119589 C117.336164,54.5898082 116.627474,52.8762671 115.341895,51.5881712 L113.464936,49.7065274 Z" id="Fill-7"></path>
                </g>
                <polygon id="Fill-10" fill="#FFFFFF" points="69.3061287 64.9563562 67.3546433 63 60 70.373 61.9514854 72.3293562"></polygon>
                <polygon id="Fill-12" fill="#FFFFFF" points="91.4734971 43.9563562 89.5220117 42 79 52.548274 80.9514854 54.5046301"></polygon>
            </g>
        </g>
    </g>
</svg>