<?xml version="1.0" encoding="UTF-8"?>
<svg width="118px" height="96px" viewBox="0 0 118 96" version="1.1" xmlns="http://www.w3.org/2000/svg" xmlns:xlink="http://www.w3.org/1999/xlink">
    <!-- Generator: Sketch 51.3 (57544) - http://www.bohemiancoding.com/sketch -->
    <title>Group 2</title>
    <desc>Created with Sketch.</desc>
    <defs>
        <polygon id="path-1" points="0 0 117.761861 0 117.761861 95.8019807 0 95.8019807"></polygon>
    </defs>
    <g id="Landing" stroke="none" stroke-width="1" fill="none" fill-rule="evenodd">
        <g id="Mobile-Copy-3" transform="translate(-44.000000, -394.000000)">
            <g id="Group-2" transform="translate(44.000000, 394.000000)">
                <g id="Group">
                    <g id="Group-17" transform="translate(0.000000, 0.187764)">
                        <g id="Group-5">
                            <mask id="mask-2" fill="white">
                                <use xlink:href="#path-1"></use>
                            </mask>
                            <g id="Clip-4"></g>
                            <path d="M80.7975673,79.4305286 L80.7975673,84.7045571 C80.7975673,89.0827214 77.4121404,92.6738 73.1337778,92.99875 C68.8547251,92.6738 65.4699883,89.0827214 65.4699883,84.7045571 L65.4699883,39.2669857 L105.329836,39.2669857 L105.329836,79.4305286 L80.7975673,79.4305286 Z M115.001696,82.2019571 L115.001696,84.7045571 C115.001696,89.2954286 111.282281,93.0306214 106.709953,93.0306214 L79.7887018,93.0306214 C82.0934971,90.9950071 83.5578012,88.0212643 83.5578012,84.7045571 L83.5578012,82.2019571 L106.709953,82.2019571 L115.001696,82.2019571 Z M62.7097544,46.6902571 L55.4572398,46.6902571 L55.4572398,44.1059 C55.4572398,39.9092643 52.0573216,36.4955571 47.8776374,36.4955571 C43.6979532,36.4955571 40.2980351,39.9092643 40.2980351,44.1059 L40.2980351,46.6902571 L14.7582807,46.6902571 C12.5183509,46.6902571 10.6959064,44.8604214 10.6959064,42.6114071 L10.6959064,22.1541071 C10.6959064,19.9050929 12.5183509,18.0752571 14.7582807,18.0752571 L18.9883392,18.0752571 L80.9976842,18.0752571 C83.236924,18.0752571 85.0593684,19.9050929 85.0593684,22.1541071 L85.0593684,36.4955571 L62.7097544,36.4955571 L62.7097544,46.6902571 Z M43.058269,50.3596286 L43.058269,44.1059 C43.058269,41.4377071 45.2202222,39.2669857 47.8776374,39.2669857 C50.5350526,39.2669857 52.6970058,41.4377071 52.6970058,44.1059 L52.6970058,50.3596286 C52.6970058,53.0278214 50.5350526,55.19785 47.8776374,55.19785 C45.2202222,55.19785 43.058269,53.0278214 43.058269,50.3596286 Z M62.7097544,73.3576357 L18.9883392,73.3576357 L14.7582807,73.3576357 C12.5183509,73.3576357 10.6959064,71.5284929 10.6959064,69.2794786 L10.6959064,48.1023 C11.8324327,48.9524357 13.2353216,49.4616857 14.7582807,49.4616857 L40.2980351,49.4616857 L40.2980351,50.3596286 C40.2980351,54.5562643 43.6979532,57.9692786 47.8776374,57.9692786 C52.0573216,57.9692786 55.4572398,54.5562643 55.4572398,50.3596286 L55.4572398,49.4616857 L62.7097544,49.4616857 L62.7097544,73.3576357 Z M6.82260819,73.3576357 C4.58267836,73.3576357 2.76023392,71.5284929 2.76023392,69.2794786 L2.76023392,22.1541071 C2.76023392,19.9050929 4.58267836,18.0752571 6.82260819,18.0752571 L9.29025731,18.0752571 C8.44355556,19.2163929 7.93567251,20.6249714 7.93567251,22.1541071 L7.93567251,69.2794786 C7.93567251,70.8086143 8.44355556,72.2171929 9.29025731,73.3576357 L6.82260819,73.3576357 Z M38.5901404,15.3038286 L38.5901404,9.8455 C38.5901404,9.54272143 38.8358012,9.29606429 39.1373567,9.29606429 L56.6179181,9.29606429 C56.9194737,9.29606429 57.1651345,9.54272143 57.1651345,9.8455 L57.1651345,15.3038286 L38.5901404,15.3038286 Z M31.7281988,10.0298 C31.7281988,6.02785714 34.9700936,2.77142857 38.9558713,2.77142857 L56.7994035,2.77142857 C60.7851813,2.77142857 64.0277661,6.02785714 64.0277661,10.0298 L64.0277661,15.3038286 L59.9253684,15.3038286 L59.9253684,9.8455 C59.9253684,8.01497143 58.4417427,6.52463571 56.6179181,6.52463571 L39.1373567,6.52463571 C37.3135322,6.52463571 35.8299064,8.01497143 35.8299064,9.8455 L35.8299064,15.3038286 L31.7281988,15.3038286 L31.7281988,10.0298 Z M108.09007,36.4955571 L87.8196023,36.4955571 L87.8196023,22.1541071 C87.8196023,18.3773429 84.759193,15.3038286 80.9976842,15.3038286 L66.788,15.3038286 L66.788,10.0298 C66.788,4.50010714 62.3074503,0 56.7994035,0 L38.9558713,0 C33.4485146,0 28.9679649,4.50010714 28.9679649,10.0298 L28.9679649,15.3038286 L18.9883392,15.3038286 L14.7582807,15.3038286 L6.82260819,15.3038286 C3.06040936,15.3038286 0,18.3773429 0,22.1541071 L0,69.2794786 C0,73.0562429 3.06040936,76.1290643 6.82260819,76.1290643 L14.7582807,76.1290643 L18.9883392,76.1290643 L62.7097544,76.1290643 L62.7097544,84.7045571 C62.7097544,90.3970714 67.0012281,95.0960286 72.5051345,95.7251429 L72.5051345,95.80205 C72.7176725,95.80205 72.924,95.7819571 73.1337778,95.7701786 C73.3428655,95.7819571 73.549883,95.80205 73.761731,95.80205 L106.709953,95.80205 C112.80455,95.80205 117.76193,90.8238714 117.76193,84.7045571 L117.76193,79.4305286 L108.09007,79.4305286 L108.09007,36.4955571 Z" id="Fill-3" fill="#FFFFFF" mask="url(#mask-2)"></path>
                        </g>
                        <polygon id="Fill-6" fill="#FFFFFF" points="72 48.7714286 98.596924 48.7714286 98.596924 46 72 46"></polygon>
                        <polygon id="Fill-8" fill="#FFFFFF" points="72 56.7714286 98.596924 56.7714286 98.596924 54 72 54"></polygon>
                        <polygon id="Fill-9" fill="#FFFFFF" points="72 65.7714286 82.8352982 65.7714286 82.8352982 64.3857143 82.8352982 63 72 63"></polygon>
                        <polygon id="Fill-10" fill="#FFFFFF" points="72 73.7714286 82.8352982 73.7714286 82.8352982 72.3857143 82.8352982 71 72 71"></polygon>
                        <polygon id="Fill-11" fill="#FFFFFF" points="75 9.63556429 77.7602339 9.63556429 77.7602339 0 75 0"></polygon>
                        <polygon id="Fill-12" fill="#FFFFFF" points="96.696117 8.9594 94.7446316 7 88 13.7712929 89.9521754 15.7306929"></polygon>
                        <polygon id="Fill-13" fill="#FFFFFF" points="93 27.7714286 101.769263 27.7714286 101.769263 25 93 25"></polygon>
                        <polygon id="Fill-14" fill="#FFFFFF" points="91.0615789 70.1010929 87.9514854 66.9790786 86 68.9384786 91.0615789 74.0198929 100.086164 64.9594 98.1346784 63"></polygon>
                        <polygon id="Fill-15" fill="#FFFFFF" points="30 84.7714286 56.9467836 84.7714286 56.9467836 82 30 82"></polygon>
                        <polygon id="Fill-16" fill="#FFFFFF" points="41 92.7714286 56.6167135 92.7714286 56.6167135 90 41 90"></polygon>
                    </g>
                </g>
            </g>
        </g>
    </g>
</svg>