<?xml version="1.0" encoding="UTF-8"?>
<svg width="171px" height="139px" viewBox="0 0 171 139" version="1.1" xmlns="http://www.w3.org/2000/svg" xmlns:xlink="http://www.w3.org/1999/xlink">
    <!-- Generator: Sketch 51.3 (57544) - http://www.bohemiancoding.com/sketch -->
    <title>Group 2</title>
    <desc>Created with Sketch.</desc>
    <defs>
        <polygon id="path-1" points="0 0 170.6549 0 170.6549 138.2709 0 138.2709"></polygon>
        <linearGradient x1="0%" y1="0%" x2="101.999998%" y2="100.999999%" id="linearGradient-3">
            <stop stop-color="#5A266F" offset="0%"></stop>
            <stop stop-color="#C32788" offset="100%"></stop>
        </linearGradient>
    </defs>
    <g id="Landing" stroke="none" stroke-width="1" fill="none" fill-rule="evenodd">
        <g id="Desktop-1440-benefit" transform="translate(-365.000000, -643.000000)">
            <g id="Group-2" transform="translate(365.000000, 643.000000)">
                <g id="Group">
                    <g id="Group-17" transform="translate(0.000000, 0.271000)">
                        <g id="Group-5">
                            <mask id="mask-2" fill="white">
                                <use xlink:href="#path-1"></use>
                            </mask>
                            <g id="Clip-4"></g>
                            <path d="M117.088,114.642 L117.088,122.254 C117.088,128.573 112.182,133.756 105.982,134.225 C99.781,133.756 94.876,128.573 94.876,122.254 L94.876,56.674 L152.639,56.674 L152.639,114.642 L117.088,114.642 Z M166.655,118.642 L166.655,122.254 C166.655,128.88 161.265,134.271 154.639,134.271 L115.626,134.271 C118.966,131.333 121.088,127.041 121.088,122.254 L121.088,118.642 L154.639,118.642 L166.655,118.642 Z M90.876,67.388 L80.366,67.388 L80.366,63.658 C80.366,57.601 75.439,52.674 69.382,52.674 C63.325,52.674 58.398,57.601 58.398,63.658 L58.398,67.388 L21.387,67.388 C18.141,67.388 15.5,64.747 15.5,61.501 L15.5,31.975 C15.5,28.729 18.141,26.088 21.387,26.088 L27.517,26.088 L117.378,26.088 C120.623,26.088 123.264,28.729 123.264,31.975 L123.264,52.674 L90.876,52.674 L90.876,67.388 Z M62.398,72.684 L62.398,63.658 C62.398,59.807 65.531,56.674 69.382,56.674 C73.233,56.674 76.366,59.807 76.366,63.658 L76.366,72.684 C76.366,76.535 73.233,79.667 69.382,79.667 C65.531,79.667 62.398,76.535 62.398,72.684 Z M90.876,105.877 L27.517,105.877 L21.387,105.877 C18.141,105.877 15.5,103.237 15.5,99.991 L15.5,69.426 C17.147,70.653 19.18,71.388 21.387,71.388 L58.398,71.388 L58.398,72.684 C58.398,78.741 63.325,83.667 69.382,83.667 C75.439,83.667 80.366,78.741 80.366,72.684 L80.366,71.388 L90.876,71.388 L90.876,105.877 Z M9.887,105.877 C6.641,105.877 4,103.237 4,99.991 L4,31.975 C4,28.729 6.641,26.088 9.887,26.088 L13.463,26.088 C12.236,27.735 11.5,29.768 11.5,31.975 L11.5,99.991 C11.5,102.198 12.236,104.231 13.463,105.877 L9.887,105.877 Z M55.923,22.088 L55.923,14.21 C55.923,13.773 56.279,13.417 56.716,13.417 L82.048,13.417 C82.485,13.417 82.841,13.773 82.841,14.21 L82.841,22.088 L55.923,22.088 Z M45.979,14.476 C45.979,8.7 50.677,4 56.453,4 L82.311,4 C88.087,4 92.786,8.7 92.786,14.476 L92.786,22.088 L86.841,22.088 L86.841,14.21 C86.841,11.568 84.691,9.417 82.048,9.417 L56.716,9.417 C54.073,9.417 51.923,11.568 51.923,14.21 L51.923,22.088 L45.979,22.088 L45.979,14.476 Z M156.639,52.674 L127.264,52.674 L127.264,31.975 C127.264,26.524 122.829,22.088 117.378,22.088 L96.786,22.088 L96.786,14.476 C96.786,6.495 90.293,0 82.311,0 L56.453,0 C48.472,0 41.979,6.495 41.979,14.476 L41.979,22.088 L27.517,22.088 L21.387,22.088 L9.887,22.088 C4.435,22.088 0,26.524 0,31.975 L0,99.991 C0,105.442 4.435,109.877 9.887,109.877 L21.387,109.877 L27.517,109.877 L90.876,109.877 L90.876,122.254 C90.876,130.47 97.095,137.252 105.071,138.16 L105.071,138.271 C105.379,138.271 105.678,138.242 105.982,138.225 C106.285,138.242 106.585,138.271 106.892,138.271 L154.639,138.271 C163.471,138.271 170.655,131.086 170.655,122.254 L170.655,114.642 L156.639,114.642 L156.639,52.674 Z" id="Fill-3" fill="url(#linearGradient-3)" mask="url(#mask-2)"></path>
                        </g>
                        <polygon id="Fill-6" fill="url(#linearGradient-3)" points="104 71 142.543 71 142.543 67 104 67"></polygon>
                        <polygon id="Fill-8" fill="url(#linearGradient-3)" points="104 83 142.543 83 142.543 79 104 79"></polygon>
                        <polygon id="Fill-9" fill="url(#linearGradient-3)" points="104 95 119.702 95 119.702 93 119.702 91 104 91"></polygon>
                        <polygon id="Fill-10" fill="url(#linearGradient-3)" points="104 107 119.702 107 119.702 105 119.702 103 104 103"></polygon>
                        <polygon id="Fill-11" fill="url(#linearGradient-3)" points="109 13.907 113 13.907 113 0 109 0"></polygon>
                        <polygon id="Fill-12" fill="url(#linearGradient-3)" points="139.602 12.828 136.774 10 127 19.773 129.829 22.601"></polygon>
                        <polygon id="Fill-13" fill="url(#linearGradient-3)" points="135 40 147.708 40 147.708 36 135 36"></polygon>
                        <polygon id="Fill-14" fill="url(#linearGradient-3)" points="132.335 101.249 127.828 96.743 125 99.571 132.335 106.905 145.413 93.828 142.585 91"></polygon>
                        <polygon id="Fill-15" fill="url(#linearGradient-3)" points="44 123 83.05 123 83.05 119 44 119"></polygon>
                        <polygon id="Fill-16" fill="url(#linearGradient-3)" points="60 135 82.631 135 82.631 131 60 131"></polygon>
                    </g>
                </g>
            </g>
        </g>
    </g>
</svg>