<?xml version="1.0" encoding="UTF-8"?>
<svg width="139px" height="94px" viewBox="0 0 139 94" version="1.1" xmlns="http://www.w3.org/2000/svg" xmlns:xlink="http://www.w3.org/1999/xlink">
    <!-- Generator: Sketch 51.3 (57544) - http://www.bohemiancoding.com/sketch -->
    <title>Group</title>
    <desc>Created with Sketch.</desc>
    <defs></defs>
    <g id="Landing" stroke="none" stroke-width="1" fill="none" fill-rule="evenodd">
        <g id="Desktop-1440-hero1" transform="translate(-510.000000, -3893.000000)" fill="#8CB90F">
            <g id="Group" transform="translate(510.000000, 3893.000000)">
                <path d="M108.27,85.262 C108.27,87.64 106.335,89.574 103.958,89.574 L36.429,89.574 C34.005,89.574 32.034,87.603 32.034,85.179 L32.034,36.239 L32.034,32.239 L32.034,16.017 C32.034,11.237 29.928,6.938 26.596,4 L103.958,4 C106.335,4 108.27,5.935 108.27,8.313 L108.27,18.148 L94.181,32.236 L94.181,21.494 L46.288,21.494 L46.288,43.748 L82.667,43.748 L77.999,48.416 L77.077,53.002 L46.288,53.002 L46.288,75.256 L94.181,75.256 L94.181,60.983 L108.27,46.895 L108.27,85.262 Z M4,19.629 L4,16.017 C4,9.391 9.391,4 16.017,4 C22.643,4 28.034,9.391 28.034,16.017 L28.034,19.629 L4,19.629 Z M134.136,15.375 L129.773,19.738 L121.055,11.02 L125.413,6.662 C126.532,5.543 128.354,5.542 129.476,6.663 L134.136,11.321 C134.675,11.861 134.972,12.581 134.972,13.35 C134.972,14.117 134.675,14.836 134.136,15.375 Z M94.181,55.326 L90.397,59.11 L90.181,59.154 L79.488,61.309 L80.353,57.002 L81.157,53.002 L81.683,50.389 L88.324,43.748 L94.181,37.892 L108.27,23.804 L112.27,19.804 L118.227,13.848 L126.944,22.566 L112.27,37.24 L108.27,41.239 L94.181,55.326 Z M90.181,63.233 L90.181,71.256 L50.288,71.256 L50.288,57.002 L76.273,57.002 L74.381,66.418 L90.181,63.233 Z M90.181,36.235 L86.667,39.748 L50.288,39.748 L50.288,25.494 L90.181,25.494 L90.181,36.235 Z M132.303,3.834 C129.624,1.155 125.264,1.155 122.584,3.834 L112.27,14.148 L112.27,8.313 C112.27,3.729 108.541,0 103.958,0 L16.017,0 C7.186,0 0,7.185 0,16.017 L0,23.629 L28.034,23.629 L28.034,32.239 L4,32.239 L4,36.239 L28.034,36.239 L28.034,85.179 C28.034,89.808 31.8,93.575 36.429,93.575 L103.958,93.575 C108.541,93.575 112.27,89.846 112.27,85.262 L112.27,42.895 L136.963,18.204 C138.259,16.911 138.972,15.187 138.972,13.35 C138.972,11.514 138.259,9.788 136.965,8.492 L132.303,3.834 Z" id="Fill-1"></path>
            </g>
        </g>
    </g>
</svg>