<?xml version="1.0" encoding="UTF-8"?>
<svg width="111px" height="121px" viewBox="0 0 111 121" version="1.1" xmlns="http://www.w3.org/2000/svg" xmlns:xlink="http://www.w3.org/1999/xlink">
    <!-- Generator: Sketch 51.3 (57544) - http://www.bohemiancoding.com/sketch -->
    <title>Group</title>
    <desc>Created with Sketch.</desc>
    <defs></defs>
    <g id="Landing" stroke="none" stroke-width="1" fill="none" fill-rule="evenodd">
        <g id="Desktop-1440-hero1" transform="translate(-823.000000, -3869.000000)" fill="#8CB90F">
            <g id="Group" transform="translate(823.000000, 3869.000000)">
                <polygon id="Fill-1" points="14 65 52.543 65 52.543 61 14 61"></polygon>
                <polygon id="Fill-2" points="14 77 29.702 77 29.702 73 14 73"></polygon>
                <polygon id="Fill-3" points="14 89 29.702 89 29.702 85 14 85"></polygon>
                <polygon id="Fill-4" points="41.334 83.25 36.828 78.743 34 81.571 41.334 88.906 54.412 75.828 51.584 73"></polygon>
                <g id="Group-7" transform="translate(0.000000, 0.432000)">
                    <path d="M61.764,96.803 L26.213,96.803 L26.213,104.415 C26.213,110.734 21.307,115.917 15.107,116.386 C8.906,115.917 4,110.734 4,104.415 L4,38.835 L43.53,38.835 C42.615,42.044 42.601,45.452 43.473,48.671 L13.611,48.671 L13.611,52.671 L45.085,52.671 C45.896,54.147 46.912,55.537 48.161,56.786 C51.722,60.348 56.4,62.128 61.077,62.128 C61.306,62.128 61.535,62.104 61.764,62.096 L61.764,96.803 Z M75.781,100.803 L75.781,104.415 C75.781,111.041 70.39,116.432 63.764,116.432 L24.75,116.432 C28.091,113.494 30.213,109.203 30.213,104.415 L30.213,100.803 L75.781,100.803 Z M96.427,0 C92.626,0 89.053,1.481 86.365,4.168 L64.335,26.199 C60.389,30.144 60.245,36.535 64.015,40.446 C65.902,42.403 68.436,43.494 71.151,43.519 C73.906,43.549 76.42,42.5 78.34,40.579 L90.304,28.615 L87.476,25.787 L75.511,37.751 C74.356,38.906 72.809,39.541 71.187,39.519 C69.555,39.504 68.031,38.848 66.895,37.67 C64.628,35.319 64.748,31.442 67.163,29.027 L89.193,6.996 C91.125,5.064 93.694,4 96.427,4 C99.159,4 101.728,5.064 103.66,6.996 C105.592,8.928 106.656,11.497 106.656,14.23 C106.656,16.962 105.592,19.531 103.66,21.463 L71.165,53.958 C65.603,59.521 56.553,59.522 50.989,53.958 C45.427,48.396 45.427,39.345 50.989,33.782 L77.77,7.001 L74.942,4.173 L48.161,30.954 C46.979,32.136 46.013,33.449 45.223,34.835 L0,34.835 L0,104.415 C0,112.631 6.22,119.413 14.197,120.321 L14.197,120.432 C14.504,120.432 14.804,120.403 15.107,120.386 C15.41,120.403 15.71,120.432 16.017,120.432 L63.764,120.432 C72.596,120.432 79.781,113.247 79.781,104.415 L79.781,96.803 L65.764,96.803 L65.764,61.503 C68.203,60.86 70.536,59.721 72.587,58.054 L72.587,88.991 L76.587,88.991 L76.587,54.193 L106.488,24.291 C109.176,21.604 110.656,18.031 110.656,14.23 C110.656,10.429 109.176,6.856 106.488,4.168 C103.801,1.481 100.227,0 96.427,0 Z" id="Fill-5"></path>
                </g>
            </g>
        </g>
    </g>
</svg>