<?xml version="1.0" encoding="UTF-8"?>
<svg width="139px" height="111px" viewBox="0 0 139 111" version="1.1" xmlns="http://www.w3.org/2000/svg" xmlns:xlink="http://www.w3.org/1999/xlink">
    <!-- Generator: Sketch 51.3 (57544) - http://www.bohemiancoding.com/sketch -->
    <title>Group</title>
    <desc>Created with Sketch.</desc>
    <defs></defs>
    <g id="Landing" stroke="none" stroke-width="1" fill="none" fill-rule="evenodd">
        <g id="Desktop-1440-hero1" transform="translate(-1080.000000, -3879.000000)" fill="#8CB90F">
            <g id="Group" transform="translate(1080.000000, 3879.000000)">
                <polygon id="Fill-1" points="100 17.327 104 17.327 104 9 100 9"></polygon>
                <polygon id="Fill-2" points="119.68 16.828 116.852 14 111 19.851 113.828 22.68"></polygon>
                <polygon id="Fill-3" points="117 34 124.608 34 124.608 30 117 30"></polygon>
                <g id="Group-6" transform="translate(0.000000, 0.737000)">
                    <path d="M21.387,85.876 C18.141,85.876 15.5,83.235 15.5,79.99 L15.5,57.291 C17.147,58.518 19.18,59.253 21.387,59.253 L52.759,59.253 L52.759,61.497 C52.759,66.252 56.627,70.12 61.382,70.12 C66.137,70.12 70.006,66.252 70.006,61.497 L70.006,59.253 L101.377,59.253 C103.584,59.253 105.617,58.518 107.264,57.291 L107.264,74.069 L97.051,84.282 L88.91,76.141 L79.174,85.876 L27.517,85.876 L21.387,85.876 Z M9.887,85.876 C6.641,85.876 4,83.235 4,79.99 L4,31.974 C4,28.728 6.641,26.087 9.887,26.087 L13.463,26.087 C12.236,27.733 11.5,29.767 11.5,31.974 L11.5,49.367 L11.5,79.99 C11.5,82.196 12.236,84.23 13.462,85.876 L9.887,85.876 Z M66.006,59.253 L66.006,61.497 C66.006,64.046 63.932,66.12 61.382,66.12 C58.833,66.12 56.759,64.046 56.759,61.497 L56.759,59.253 L56.759,55.253 L56.759,54.843 C56.759,52.294 58.833,50.22 61.382,50.22 C63.932,50.22 66.006,52.294 66.006,54.843 L66.006,55.253 L66.006,59.253 Z M27.517,26.087 L101.377,26.087 C104.623,26.087 107.264,28.728 107.264,31.974 L107.264,49.367 C107.264,52.612 104.623,55.253 101.377,55.253 L70.006,55.253 L70.006,54.843 C70.006,50.088 66.137,46.22 61.382,46.22 C56.627,46.22 52.759,50.088 52.759,54.843 L52.759,55.253 L21.387,55.253 C18.141,55.253 15.5,52.612 15.5,49.367 L15.5,31.974 C15.5,28.728 18.141,26.087 21.387,26.087 L27.517,26.087 Z M74.841,22.087 L47.923,22.087 L47.923,14.209 C47.923,13.772 48.279,13.416 48.716,13.416 L74.048,13.416 C74.486,13.416 74.841,13.772 74.841,14.209 L74.841,22.087 Z M37.979,14.475 C37.979,8.699 42.678,4 48.453,4 L74.311,4 C80.086,4 84.785,8.699 84.785,14.475 L84.785,22.087 L78.841,22.087 L78.841,14.209 C78.841,11.566 76.691,9.416 74.048,9.416 L48.716,9.416 C46.074,9.416 43.923,11.566 43.923,14.209 L43.923,22.087 L37.979,22.087 L37.979,14.475 Z M82.846,89.876 L81.838,88.868 L84.83,85.876 L88.91,81.797 L92.989,85.876 L96.989,89.876 L97.051,89.938 L97.114,89.876 L101.114,85.876 L107.264,79.726 L111.264,75.726 L125.525,61.465 L132.597,68.536 L97.051,104.081 L82.846,89.876 Z M125.525,55.809 L111.264,70.069 L111.264,49.367 L111.264,31.974 C111.264,26.522 106.828,22.087 101.377,22.087 L88.785,22.087 L88.785,14.475 C88.785,6.493 82.292,0 74.311,0 L48.453,0 C40.472,0 33.979,6.493 33.979,14.475 L33.979,22.087 L27.517,22.087 L21.387,22.087 L9.887,22.087 C4.436,22.087 0,26.522 0,31.974 L0,79.99 C0,85.441 4.436,89.876 9.887,89.876 L21.387,89.876 L27.517,89.876 L77.19,89.876 L97.051,109.737 L138.253,68.536 L125.525,55.809 Z" id="Fill-4"></path>
                </g>
            </g>
        </g>
    </g>
</svg>