<?xml version="1.0" encoding="UTF-8"?>
<svg width="137px" height="102px" viewBox="0 0 137 102" version="1.1" xmlns="http://www.w3.org/2000/svg" xmlns:xlink="http://www.w3.org/1999/xlink">
    <!-- Generator: Sketch 51.3 (57544) - http://www.bohemiancoding.com/sketch -->
    <title>Group</title>
    <desc>Created with Sketch.</desc>
    <defs></defs>
    <g id="Landing" stroke="none" stroke-width="1" fill="none" fill-rule="evenodd">
        <g id="Desktop-1440-hero1" transform="translate(-240.000000, -3888.000000)" fill="#8CB90F">
            <g id="Group" transform="translate(240.000000, 3888.000000)">
                <path d="M51.763,53.621 C48.595,58.933 42.792,62.233 36.619,62.233 C26.904,62.233 19,54.329 19,44.613 C19,34.901 26.904,27 36.619,27 C42.795,27 48.597,30.3 51.763,35.611 L52.345,36.588 L57.777,36.588 L63.711,43.762 L70.164,37.09 L71.897,37.09 L77.856,43.068 L83.222,37.626 L89.217,37.836 L95.679,44.613 L89.217,51.392 L52.322,52.684 L51.763,53.621 Z M81.607,33.567 L77.841,37.387 L73.558,33.09 L68.468,33.09 L63.944,37.767 L59.659,32.588 L54.581,32.588 C50.59,26.645 43.811,23 36.619,23 C24.699,23 15,32.695 15,44.613 C15,56.534 24.699,66.233 36.619,66.233 C43.823,66.233 50.615,62.571 54.606,56.607 L90.987,55.333 L101.205,44.613 L90.987,33.894 L81.607,33.567 Z" id="Fill-1"></path>
                <path d="M31.721,48.44 C29.669,48.44 28,46.771 28,44.719 C28,42.669 29.669,41 31.721,41 C33.773,41 35.442,42.669 35.442,44.719 C35.442,46.771 33.773,48.44 31.721,48.44 M31.721,37 C27.464,37 24,40.462 24,44.719 C24,48.976 27.464,52.44 31.721,52.44 C35.978,52.44 39.442,48.976 39.442,44.719 C39.442,40.462 35.978,37 31.721,37" id="Fill-3"></path>
                <g id="Group-7" transform="translate(0.000000, 0.606000)">
                    <path d="M126.917,47.612 L111.764,47.612 L111.764,77.446 C111.764,80.943 108.918,83.789 105.42,83.789 L10.343,83.789 C6.845,83.789 4,80.943 4,77.446 L4,10.343 C4,6.845 6.845,4 10.343,4 L105.42,4 C108.918,4 111.764,6.845 111.764,10.343 L111.764,32.459 L126.917,47.612 Z M115.764,10.343 C115.764,4.64 111.124,0 105.42,0 L10.343,0 C4.64,0 0,4.64 0,10.343 L0,77.446 C0,83.149 4.64,87.789 10.343,87.789 L105.42,87.789 C111.124,87.789 115.764,83.149 115.764,77.446 L115.764,51.612 L136.574,51.612 L115.764,30.802 L115.764,10.343 Z" id="Fill-5"></path>
                </g>
                <polygon id="Fill-8" points="14 102 100.069 102 100.069 98 14 98"></polygon>
            </g>
        </g>
    </g>
</svg>